<svg height="37" viewBox="0 0 150 37" width="150" xmlns="http://www.w3.org/2000/svg"><path d="m857.559518 1660.72582-8.242889-15.66938c1.711354-.51878 3.281083-1.19564 4.694037-2.02893 1.413283-.84153 2.638172-1.80154 3.674009-2.87112 1.028591-1.0699 1.83717-2.20251 2.409926-3.40607.573745-1.21115.871816-2.4388.903105-3.6813.024044-1.05406-.141295-2.03717-.478889-2.93415-.345169-.89632-.848102-1.66723-1.507151-2.32-.666954-.6455-1.468286-1.13261-2.409926-1.44777-.941969-.32209-2.009425-.43232-3.187216-.33034-.863581.0792-1.617157.24421-2.253151.48776-.628089.2518-1.161652.53495-1.585538.85737-.43212.33035-.76148.6531-.997631.97519-.243068.32276-.399843.60591-.478231.84187-.070812.24421-.079046.4013-.008563.47225.212108.20461.455834.58973.73052 1.15604.282591.57422.518083 1.25867.714382 2.06093.196298.79402.275015 1.62796.235492 2.50151-.039194.86529-.266781 1.70683-.690668 2.50117-.423886.80226-1.114553 1.48671-2.072661 2.06853l-4.89857-12.50686c0-.01551-.023714-.06238-.078387-.14158-.047099-.08646-.133391-.13332-.251302-.14157h-11.916899c-.125157 0-.204203.03168-.243068.08679-.039523.05478-.055332.1023-.047428.15742 0 .05511.007905.07854.007905.08646l7.63028 15.24432c-1.679406.4871-3.24156 1.14812-4.686461 1.96622-1.444243.82603-2.715902 1.76195-3.815305 2.80809-1.099074 1.05406-1.970231 2.17908-2.61413 3.35855-.643569 1.18772-1.004547 2.39128-1.082935 3.61893-.055332 1.04548.078388 2.021.391938 2.9259.314539.90457.77729 1.69891 1.397804 2.38336.620184.68412 1.357951 1.21907 2.213628 1.6042.855347.38578 1.797646.58247 2.825907.59039.871816-.00792 1.65668-.14917 2.363157-.40922.706477-.25972 1.326991-.58973 1.85265-.99103.534221-.40129.973588-.8181 1.319086-1.24316.337594-.42473.580662-.80193.721957-1.1402.141295-.33859.172585-.56663.101772-.70029-.187735-.19602-.407747-.53462-.659049-1.01446-.250972-.47984-.462751-1.05406-.628089-1.72234-.172585-.66894-.235493-1.38474-.188065-2.14014.038865-.76233.266452-1.51773.666954-2.27313.400502-.74682 1.0444-1.44711 1.938942-2.09988l5.086963 12.45967c0 .00759.016139.04686.055003.11748.039523.07095.110006.11056.227588.11815h12.717902c.133061-.00759.188065-.0472.18016-.11815-.01548-.07062-.023385-.10989-.038865-.11748zm30.359861-9.364c.062498-.47737.14186-1.08984.251976-1.82107.10284-.73924.220562-1.54252.34688-2.4252.126319-.88234.260243-1.78904.402104-2.71142.134255-.92237.267518-1.81273.393836-2.67139.126319-.85866.244702-1.62224.346881-2.30577.10284-.68386.189147-1.22428.244701-1.62225.062498-.39764.094243-.60413.094243-.61247-.007606-.09507-.031745-.15879-.070765-.19048-.039681-.03202-.063159-.0477-.071096-.0477h-9.458361c-.007936 0-.054892.01568-.14186.05571-.078702.03936-.125658.11108-.141861.23051 0 .00767-.046956.31024-.125657.89068-.078701.58846-.181542 1.3834-.299925 2.40085-.378294-.89802-.866705-1.6853-1.457956-2.36148-.599187-.67552-1.308489-1.2086-2.14378-1.58989-.827685-.38163-1.789295-.57244-2.876892-.58045-1.237064.00801-2.388482.2225-3.452271.65984-1.064119.42933-2.025398 1.03413-2.884497 1.80472-.867367.77927-1.623626 1.68597-2.269769 2.71943-.646474 1.03379-1.182502 2.16299-1.592541 3.3796-.417646 1.2166-.701367 2.48024-.866706 3.79258-.157733 1.28799-.189478 2.57632-.086637 3.87231.109785 1.28799.34688 2.51227.717239 3.67316.377964 1.16056.882247 2.2027 1.528721 3.10906.646805.90603 1.426872 1.62191 2.340864 2.13831.914323.52541 1.970506.79595 3.160613.80362 1.103801-.00767 2.151717-.24686 3.136805-.70754.985418-.46169 1.89974-1.09785 2.742967-1.90881.835622-.80261 1.591881-1.733 2.254558-2.7748.070765 1.13688.354486 2.10729.851163 2.91825.504283.81062 1.173904 1.4311 2.017462 1.86043.835621.43734 1.805167.65183 2.90037.65984.670283-.00801 1.324362-.11109 1.978442-.31791.646143-.19882 1.253267-.46936 1.820709-.80295.559837-.33393 1.03998-.69954 1.442414-1.09751.402104-.3893.685825-.77927.8591-1.16857.094904-.20682.10251-.35794.007605-.46102-.086637-.09574-.228498-.19882-.425581-.31057-.196423-.10308-.409379-.27021-.630602-.49305-.228498-.2225-.433518-.56443-.614398-1.02545-.181542-.45302-.299263-1.08117-.354486-1.88412-.06316-.79494-.015873-1.82107.125988-3.07703zm-14.187485 4.63818c-.551215-.00867-1.0197-.19-1.405455-.54256-.384805-.36195-.679906-.85249-.891327-1.49005-.219028-.63684-.355009-1.37699-.407943-2.22082-.052301-.83515-.030113-1.74796.075439-2.72074.106186-.97314.271962-1.88596.506522-2.72978.233926-.85213.52142-1.59228.876429-2.23851.355009-.63684.755345-1.14472 1.21654-1.50631.460244-.36195.966765-.54256 1.525905-.55123.551215.00867 1.027307.18928 1.412746.55123.385438.36159.687513.86947.914148 1.50631.219345.64623.355326 1.38638.415234 2.23851.053251.84382.038037 1.75664-.067832 2.72978-.105552.97278-.271963 1.88559-.513495 2.72074-.23456.84383-.536635 1.58398-.891644 2.22082-.355009.63756-.770877 1.1281-1.231121 1.49005-.468485.35256-.975007.53389-1.534146.54256zm46.268106-18.70142c0-.07108-.023886-.11891-.055402-.15013-.031847-.02425-.063363-.03986-.086917-.03986h.047108c-3.684715-.75201-7.235072-1.12435-10.634816-1.10808-3.408038.02358-6.73712.38763-10.002838 1.10808-.031516 0-.063364.01561-.110472.0475-.047772.03155-.070994.095-.079619.19033 0 .00763-.023554.20527-.070994.58559-.047108.37999-.118434.88653-.213645 1.53557-.094548.64139-.205684 1.36184-.348003 2.16168-.133694.80747-.284639 1.63123-.458143 2.47756-.173835.85531-.363926 1.67109-.569609 2.46262-.205352.79154-.426959 1.50401-.663826 2.1298-.545724 1.36151-1.083818 2.48587-1.628878 3.38037-.538094.89483-1.05197 1.61495-1.534331 2.15371-.48236.54574-.91728.97356-1.296799 1.27482-.379187.30858-.680082.55371-.909319.73607-.221275.18169-.348002.35607-.371556.53012-.031516.20594 0 .51518.086917.92639.095212.41154.261085.85497.498284 1.3459.245161.48296.576909.95031 1.003867 1.40138.42729.44309.95709.81511 1.589732 1.1001.640604.29297 1.399309.44377 2.277444.45174 1.280875.00797 2.427393-.27702 3.447184-.85498 1.01216-.56998 1.897925-1.45684 2.641038-2.66822.751407-1.20341 1.359831-2.75492 1.834561-4.64722.47473-1.88467.853917-3.85569 1.138556-5.92968.284639-2.06636.47473-4.21177.569278-6.42062h3.842958c-.126727 1.01308-.252791 2.10555-.403404 3.27741-.14232 1.17152-.292601 2.37526-.442551 3.60989-.150281 1.23562-.300562 2.44667-.442882 3.6338-.150281 1.19577-.292601 2.31216-.418997 3.35679-.126727 1.0453-.245161 1.97169-.340372 2.77883-.10251.80017-.181466 1.42529-.236867 1.88467-.055402.45904-.086918.68889-.086918.69687.007962.1106.039146.18169.094879.20593.055402.02359.086586.0392.094548.03123h9.156551c.007962.00797.03981-.00764.095544-.03123.054738-.02424.086917-.09533.094548-.20593 0-.00798.031515-.26938.094879-.76829.063364-.49856.14232-1.18746.253123-2.05838.110472-.87856.229237-1.87603.371557-3.00038.134357-1.13233.284639-2.31979.442551-3.57834.150281-1.25888.308856-2.52573.466768-3.80055.158243-1.26685.308193-2.49384.450512-3.65739.142651-1.16355.277009-2.21682.395774-3.15882.110472-.94266.205684-1.70995.284639-2.30418.071326-.60154.118102-.95761.134358-1.09247zm11.010124 4.64386.229583-.94071c2.671186-.31389 4.913711-.83936 6.742666-1.56915 1.829276-.72914 3.275807-1.59153 4.346978-2.57962 1.071493-.98808 1.814185-2.03144 2.227434-3.12975.413249-1.08976.535907-2.16405.374717-3.20708-.160547-1.05093-.558383-1.99197-1.201215-2.8389-.642831-.83936-1.477356-1.50631-2.510638-1.99262-1.033283-.47775-2.219406-.71367-3.550986-.68175-1.790744.06284-3.443739.44682-4.966691 1.17596-1.515567.7219-2.893063 1.69386-4.132809 2.92543-1.232361 1.23124-2.319266 2.64279-3.260716 4.22741-.941128 1.58363-1.737121 3.26992-2.372247 5.05854-.643152 1.78007-1.125436 3.59139-1.446531 5.41851-.321737 1.83534-.489669 3.60751-.489669 5.33329 0 1.63134.236968 3.16825.696454 4.59559.466872 1.42735 1.147592 2.68228 2.051153 3.76414.910624 1.09041 2.027712 1.94524 3.351585 2.55724 1.332222.61891 2.862558.93313 4.59968.94103 1.43144-.0079 2.793844-.204 4.079186-.59588 1.29369-.4001 2.472108-.97262 3.536215-1.71788 1.063465-.73703 1.97409-1.63891 2.739579-2.68984.758105-1.04336 1.324516-2.22722 1.691527-3.5371.367332-1.30987.505082-2.72932.398157-4.25834-.114952-1.33323-.467193-2.46247-1.05608-3.39627-.58953-.92524-1.354698-1.67017-2.273671-2.21899-.925716-.55706-1.951292-.94104-3.060995-1.1605-1.117088-.2119-2.257616-.27441-3.413557-.18064-1.162683.0941-2.265001.32969-3.329109.69788zm6.047314-10.94244c.304258 0 .527954.06751.665091.18044.136356.12051.217439.27824.248204.45899.031286.18738.037543.3754.018511.57855-.068309.5489-.242207 1.06782-.527954 1.55647-.285747.48107-.621291.91735-1.006632 1.31609-.385341.39053-.764685.73627-1.137251 1.01482-.372826.28581-.683863.50379-.932066.66152-.248464.15079-.373087.23312-.385341.23312.074305-.32334.180156-.73691.310776-1.23281.124362-.49653.286007-1.01514.465902-1.56435.180156-.5489.391599-1.05994.621552-1.54858.229692-.4817.484674-.8795.764424-1.18076.273493-.30788.571494-.46624.894784-.4735zm-.076461 20.71364c-.007378.28573-.060949.64306-.160071 1.07932-.099764.43659-.245079.89682-.428246 1.38103-.191187.47656-.428567.93646-.711498 1.36505-.282611.42893-.611735.77794-.993467 1.04036-.382695.26974-.803242.41261-1.284739.4206-.550785-.00799-1.001486-.19848-1.330289-.57146-.336503-.37365-.588959-.8572-.749351-1.46862-.160392-.61109-.260156-1.27813-.298008-2.00811-.038494-.73031-.030795-1.45263.007699-2.18328.04523-.72232.1065-1.38869.183167-1.99245.076347-.60277.153014-1.08731.213963-1.44431.015718-.00799.153334-.04729.428567-.11856.267533-.0716.611734-.12721 1.016563-.17517.40515-.05561.8103-.04795 1.21577.008.764428.14286 1.361085.4206 1.796709.82555.443644.41295.749351.93679.917763 1.58751.16809.64306.22936 1.39735.175468 2.25454zm35.938726-.35182c.062498-.47737.14153-1.08984.251646-1.82107.102841-.73924.220893-1.54252.346881-2.4252.12632-.88234.260244-1.78904.402105-2.71142.134256-.92237.267519-1.81273.393838-2.67139s.244702-1.62224.346882-2.30577c.102841-.68386.189478-1.22428.244702-1.62225.062498-.39764.094243-.60413.094243-.61247-.007606-.09507-.031745-.15879-.070765-.19048-.039682-.03202-.06316-.0477-.071096-.0477h-9.458392c-.007606 0-.054562.01568-.141861.05571-.078701.03936-.125658.11108-.141861.23051 0 .00767-.046956.31024-.125658.89068-.078701.58846-.181542 1.3834-.299925 2.40085-.378296-.89802-.867039-1.6853-1.45763-2.36148-.59952-.67552-1.308825-1.2086-2.143788-1.58989-.828018-.38163-1.789631-.57244-2.877232-.58045-1.237067.00801-2.388159.2225-3.452281.65984-1.064123.42933-2.025405 1.03413-2.884507 1.80472-.86737.77927-1.623631 1.68597-2.269776 2.71943-.646146 1.03379-1.182506 2.16299-1.592547 3.3796-.417647 1.2166-.701369 2.48024-.866708 3.79258-.157403 1.28799-.189479 2.57632-.086638 3.87231.110116 1.28799.346882 2.51227.717242 3.67316.377965 1.16056.88258 2.2027 1.528725 3.10906.646807.90603 1.427208 1.62191 2.340872 2.13831.914326.52541 1.970512.79595 3.160624.80362 1.103804-.00767 2.151723-.24686 3.137145-.70754.985091-.46169 1.899416-1.09785 2.742977-1.90881.835293-.80261 1.591554-1.733 2.254234-2.7748.070765 1.13688.354487 2.10729.851166 2.91825.504284.81062 1.173908 1.4311 2.017468 1.86043.835624.43734 1.805173.65183 2.90038.65984.670285-.00801 1.324366-.11109 1.978448-.31791.646476-.19882 1.253602-.46936 1.821046-.80295.559507-.33393 1.039983-.69954 1.442088-1.09751.402105-.3893.685827-.77927.859102-1.16857.094905-.20682.10251-.35794.007606-.46102-.086307-.09574-.228499-.19882-.425583-.31057-.196423-.10308-.40938-.27021-.630604-.49305-.228499-.2225-.433519-.56443-.6144-1.02545-.181543-.45302-.299264-1.08117-.354487-1.88412-.06316-.79494-.015873-1.82107.126319-3.07703zm-13.187537 4.63818c-.551538-.00867-1.020028-.19-1.40547-.54256-.385126-.36195-.679913-.85249-.891653-1.49005-.21903-.63684-.355013-1.37699-.407948-2.22082-.052301-.83515-.029795-1.74796.075441-2.72074.106186-.97314.272282-1.88596.506527-2.72978.233928-.85213.521425-1.59228.876438-2.23851.355012-.63684.75567-1.14472 1.216552-1.50631.460566-.36195.967093-.54256 1.525922-.55123.551537.00867 1.027318.18928 1.41276.55123.38576.36159.687521.86947.914158 1.50631.219348.64623.35533 1.38638.415239 2.23851.053251.84382.038037 1.75664-.067833 2.72978-.105553.97278-.271965 1.88559-.513501 2.72074-.234562.84383-.536323 1.58398-.891336 2.22082-.355012.63756-.771202 1.1281-1.23145 1.49005-.46849.35256-.975018.53389-1.533846.54256z" fill="#44211a" fill-rule="evenodd" transform="translate(-825 -1625)"/></svg>