<svg height="32" viewBox="0 0 40 32" width="40" xmlns="http://www.w3.org/2000/svg"><g fill="none" fill-rule="evenodd"><g transform="translate(.056874 .070012)"><path d="m39.4232299 12.7301397c0 7.0291391-5.4565509 12.7273831-12.1875489 12.7273831-6.7309979 0-12.1875505-5.698244-12.1875505-12.7273831 0-7.02914021 5.4565526-12.72738384 12.1875505-12.72738384 6.730998 0 12.1875489 5.69824363 12.1875489 12.72738384z" fill="#f79f1a"/><path d="m24.3880384 12.7301397c0 7.0291391-5.4565509 12.7273831-12.1875489 12.7273831-6.73099789 0-12.18755046-5.698244-12.18755046-12.7273831 0-7.02914021 5.45655257-12.72738384 12.18755046-12.72738384 6.730998 0 12.1875489 5.69824363 12.1875489 12.72738384z" fill="#ea001b"/><path d="m19.71811 2.71105018c-2.8436636 2.32996999-4.6690321 5.95060228-4.6690321 10.01789692 0 4.0672947 1.8253685 7.6906904 4.6690321 10.0206606 2.8436635-2.3299702 4.669032-5.9533659 4.669032-10.0206606 0-4.06729464-1.8253685-7.68792693-4.669032-10.01789692z" fill="#ff5f01"/></g><path d="m1.00624819.48905998v-.45426155h-.1137886l-.13089407.31240171-.13089408-.31240171h-.11378859v.45426155h.08032136v-.34263414l.1227132.29534753h.08329623l.12271319-.29612272v.34340933zm-.72066112 0v-.37674252h.1457684v-.07674384h-.37111445v.07674384h.1457684v.37674252z" fill="#f79f1a" transform="translate(38.451051 19.06426)"/><g fill="#000"><g transform="translate(2.00827 27.042336)"><path d="m.77273365 4.78129986h-.69158902v-3.36399974h.67802843v.40989884s.59553012-.50096714.94923983-.49470514c.68774053.01217646 1.09840579.62191547 1.09840579.62191547s.33313122-.62191547 1.08484613-.62191547c1.11162013 0 1.27469317 1.06008397 1.27469317 1.06008397v2.37458768h-.66446802v-2.09189916s.0023841-.63604985-.71871002-.63604985c-.74568424 0-.81363438.63604985-.81363438.63604985v2.09189916h-.69158902v-2.10603354s-.06643823-.6643195-.69158876-.6643195c-.81192047 0-.82719472.67845388-.82719472.67845388z"/><path d="m21.8047245 1.33203485c-.3537099-.00626112-.9491842.49467684-.9491842.49467684v-.40900655h-.6787463v3.36324982h.692003l-.0132567-2.10583103s.0153014-.67707165.827222-.67707165c.1507886 0 .2678978.03806988.360584.09672452v-.00275914l.2253649-.65496319c-.1359953-.05966101-.2906518-.10195096-.4639867-.10501962z"/><path d="m31.5469151 1.33203485c-.35371-.00626112-.9491843.49467684-.9491843.49467684v-.40900655h-.6787463v3.36324982h.6920031l-.0132568-2.10583103s.0153015-.67707165.8272221-.67707165c.1507885 0 .2678977.03806988.3605839.09672452v-.00275914l.225365-.65496319c-.1359953-.05965659-.2906519-.10194654-.4639867-.1050152z"/><path d="m7.40257671 1.31821706c-1.03501003 0-1.58274302.96962144-1.58550891 1.77973121-.00284225.83035228.62354555 1.78802189 1.61467379 1.78802189.57821887 0 1.05322843-.4449328 1.05322843-.4449328l-.00125568.34268116h.68074435v-3.36733812h-.68314202v.42414908s-.44608054-.52231242-1.07873657-.52231242zm.13256763.68536233c.55607987 0 1.00751403.50417199 1.00751403 1.12476802s-.45143416 1.12200446-1.00751403 1.12200446c-.55607986 0-1.00486266-.50140843-1.00486266-1.12200446s.4487828-1.12476802 1.00486266-1.12476802z"/><path d="m27.255249 1.31821706c-1.0350101 0-1.5827431.96962144-1.5855089 1.77973121-.0028423.83035228.6235455 1.78802189 1.6146737 1.78802189.5782189 0 1.0532285-.4449328 1.0532285-.4449328l-.0012557.34268116h.6807443v-3.36733812h-.683142v.42414908s-.4460805-.52231242-1.0787365-.52231242zm.1325676.68536233c.5560799 0 1.007514.50417199 1.007514 1.12476802s-.4514341 1.12200446-1.007514 1.12200446-1.0048627-.50140843-1.0048627-1.12200446.4487828-1.12476802 1.0048627-1.12476802z"/><path d="m33.7914434 1.31821706c-1.0350101 0-1.582743.96962144-1.5855089 1.77973121-.0028423.83035228.6235455 1.78802189 1.6146737 1.78802189.5782189 0 1.0532285-.4449328 1.0532285-.4449328l-.0012557.34268116h.6807443v-4.6966156h-.683142v1.75342656s-.4460805-.52231242-1.0787365-.52231242zm.1325676.68536233c.5560799 0 1.007514.50417199 1.007514 1.12476802s-.4514341 1.12200446-1.007514 1.12200446-1.0048627-.50140843-1.0048627-1.12200446.4487828-1.12476802 1.0048627-1.12476802z"/><path d="m11.2414928 4.89437491c-.7051284 0-1.35605708-.45230199-1.35605708-.45230199l.29833278-.48057165s.6159088.2968238 1.0577243.2968238c.2870587 0 .7671589-.09661841.772952-.39576447.0061257-.31616693-.8068537-.40989974-.8068537-.40989974s-1.21367051-.01725698-1.21367051-1.06008307c0-.65584135.60613991-1.07421835 1.38317801-1.07421835.4489805 0 1.2882537.40989885 1.2882537.40989885l-.3390143.55124355s-.6480101-.26984616-.9899217-.28268941c-.2887166-.01084464-.6373462.13324328-.6373462.39576536 0 .7132464 2.0205242-.0555736 2.0205242 1.38517563 0 .94520839-.8228942 1.11662149-1.4781015 1.11662149z"/><path d="m13.8427124.44216925v.97829945h-.6018571v.70747079h.6018571v1.69129737s-.0532663 1.14411292 1.1268249 1.14411292c.3262691 0 .9650924-.25148376.9650924-.25148376l-.2730894-.73510637s-.2540437.22587331-.5408759.21832106c-.5453735-.01435369-.5302705-.37860741-.5302705-.37860741v-1.68853381h1.1241735v-.70747079h-1.1241735v-.97829945z"/><path d="m17.9390523 1.35967043c-1.1098028 0-1.6643029.95279513-1.6597468 1.77973121.0046834.85041173.5049355 1.80736679 1.7260306 1.80736679.5226423 0 1.2567412-.4780955 1.2567412-.4780955l-.315511-.57205646s-.5009393.37031675-.9412302.37031675c-.8815175 0-.9385788-.89815628-.9385788-.89815628h2.3597039s.176043-2.00910651-1.4874089-2.00910651zm-.1007514.66049031c.0261691-.00154759.0542233 0 .0821919 0 .8304716 0 .8245707.8180131.8245707.8180131h-1.6783062s-.0397016-.76994223.7715436-.8180131z"/><path d="m24.9580432 3.8879588.3164298.65964134s-.5015231.33981503-1.0643531.33981503c-1.1652428 0-1.812278-.91408675-1.812278-1.77903259 0-1.35937682 1.0296852-1.75904388 1.7259788-1.75904388.6320155 0 1.1794184.37979332 1.1794184.37979332l-.3547841.65964134s-.215093-.34980982-.8438123-.34980982c-.6276697 0-.9588767.56406647-.9588767 1.09940254 0 .59991755.3855109 1.10939645.9684657 1.10939645.4573172 0 .8438115-.35980373.8438115-.35980373z"/></g><path d="m.37136851.00904596c-.09581431.00244126-.17474332.03556354-.23678728.09936699-.06204424.06380564-.09415376.14365218-.09632868.23953989.00217492.09516255.03428445.17480143.0963287.23891685.06204398.06411667.14097299.09744664.23678726.09999003.09362201-.00254339.17155486-.03587337.23379879-.09999005.06224273-.06411545.0945515-.14375432.0969264-.23891683-.0023251-.09588771-.03453425-.17573426-.09662757-.23953991-.06209454-.06380346-.14012699-.09692575-.23409762-.09936697zm0 .60305489c-.07300224-.00186837-.13320347-.02761863-.18060387-.07725086-.04740079-.0496309-.0719395-.11192988-.0736162-.18689715.00167674-.07529444.02621545-.13755885.07361622-.1867934.04740038-.04923246.10760161-.07474042.18060385-.07652396.07147404.00178357.1307455.02729153.17781458.07652399.04706797.04923452.07147388.11149893.0732178.18679337-.00174392.07496729-.02614983.13726629-.07321778.18689715-.04706907.04963219-.10634053.07538245-.1778146.07725086zm.01912628-.42280295h-.13946243v.31481791h.06455119v-.11795288h.02948634l.09164674.11795288h.07730203l-.09881909-.11878354c.03086389-.00403132.05460567-.01444912.07122541-.0312534.01661877-.01680259.02501972-.0382265.02520289-.06427182-.00021635-.03107939-.01074244-.05551446-.03157829-.07330526-.02083681-.01778883-.05068838-.02685679-.08955479-.02720389zm-.00079693.05897644c.01731616.00001825.03089711.00351395.04074289.01048696.00984496.00697494.01485894.01732352.01504208.03104573-.00018365.01412196-.00519708.02471278-.01504205.03177246-.00984577.00706149-.02342676.01059169-.04074292.01059085h-.07411432v-.08389607z" transform="translate(38.617527 31.352967)"/></g></g></svg>