<svg height="70" viewBox="0 0 225 70" width="225" xmlns="http://www.w3.org/2000/svg"><g fill="none" fill-rule="evenodd"><path d="m109.107131 29.3464954c.250749-.3986397.507091-.7906669.775551-1.1826942h.156602v8.8361988h3.960716v-15h-3.960716l-4.433318 6.8401663c-.249817.3910825-.499634.7679954-.746654 1.132628-.247021.3703004-.49777.7604383-.742926 1.1675798h-.157534v-9.1403741h-3.958852v15h3.958852c.746654-1.0438315 1.474666-2.111279 2.185898-3.2051766.714029-1.0948423 1.433651-2.1745702 2.156069-3.2382392.289899-.4061969.559292-.8123938.806312-1.2100888" fill="#1a1919"/><path d="m122.013497 30.7738523h5.972061v6.2261477h4.014442v-15h-4.014442v5.7065936h-5.972061v-5.7065936h-4.013497v15h4.013497z" fill="#1a1919"/><path d="m144.313507 33.5645466c-.40535.2862091-.938452.4297859-1.596424.4297859h-2.634772v-3.6819899h2.601153c.681986 0 1.224693.1558564 1.630043.4609571.402468.30699.604182.7679472.604182 1.3809824 0 .6536524-.201714 1.1240554-.604182 1.4102645m4.686493-1.377204c0-1.5377834-.543668-2.7270151-1.622359-3.5780857-1.083493-.8463476-2.534875-1.2732997-4.354145-1.2732997h-2.941185v-5.3359572h-4.082311v15h7.202158c1.759716 0 3.165952-.386335 4.217747-1.1495592 1.054678-.7698363 1.580095-1.9883501 1.580095-3.6630982" fill="#1a1919"/><path d="m196.518829 34.1659425c-.49988.2280083-1.023746.3621309-1.574478.4033256v-9.8311835c1.336532.1053821 2.366035.6073836 3.088511 1.5088788.721516.9034113 1.084192 2.0195025 1.084192 3.3444418 0 .7903651-.118013 1.4858863-.354041 2.0856058-.231231.6025935-.539218 1.1084271-.923003 1.5242071-.380907.4138638-.82226.736716-1.321181.9647244zm-5.401775.3736271c-.576637-.0440689-1.120652-.1753174-1.633005-.4042837-.514272-.2299244-.96522-.5499025-1.349964-.9675985-.383785-.4129059-.688894-.9168235-.913409-1.5079207-.225473-.5891813-.33773-1.2779964-.33773-2.0683615 0-1.3249393.369393-2.4410305 1.108179-3.3444418.737827-.9014952 1.780763-1.4034967 3.125929-1.5088788zm9.562006.681151c.715759-.681151 1.278964-1.4992986 1.69633-2.4554009.413528-.9551442.62461-2.0434529.62461-3.2687583 0-1.1390837-.204366-2.1766175-.609259-3.1087693-.403934-.9340678-.965219-1.7359291-1.6781-2.411332-.71384-.6734868-1.565843-1.2023129-2.556968-1.5855202-.990166-.3841653-2.061886-.6054676-3.211322-.6696548v-5.7212851l-3.827297 1.4638519v4.2574332c-1.132166.0641872-2.19621.2960277-3.192132.7003114-.994963.4061997-1.85656.945564-2.584792 1.6190508-.726314.6706128-1.297194 1.4724741-1.71456 2.3940877-.417367.9225716-.62557 1.9457351-.62557 3.0618264 0 1.2253054.192852 2.3193622.578556 3.2850446.382826.9618504.935476 1.7924522 1.652195 2.4860575.715759.6964792 1.5716 1.2368015 2.565603 1.6209669.997841.3812912 2.103142.6035515 3.3207.6658227v6.4455469l3.858-1.4638519v-5.0113936c1.127369-.0603551 2.184697-.2921956 3.164308-.683067.98153-.3937455 1.826817-.9359839 2.539698-1.6209669z" fill="#1a1919"/><path d="m220.765485 31.6775474c-.234132.6026141-.543108 1.1084651-.923092 1.5242592-.381903.4138781-.825217.7367413-1.322266.9647574-.500888.2289742-1.025764.3621433-1.576549.4033395v-9.8315199c1.334741.1044276 2.366262.6074044 3.088807 1.5079724.722545.9044002 1.081418 2.0195716 1.081418 3.3464723 0 .7894341-.113227 1.4840211-.348318 2.0847191zm-7.644773 2.8626565c-.579571-.0440703-1.123639-.1762814-1.63796-.4042975-.512402-.2299323-.963393-.5499213-1.347215-.9666735-.3867-.4138781-.68992-.9178129-.915415-1.5089304-.225496-.5901595-.335844-1.2780401-.335844-2.0674742 0-1.3269007.367509-2.4420721 1.105407-3.3464723.739817-.900568 1.782853-1.4035448 3.131027-1.5079724zm11.256537-1.7733525c.415487-.9561349.622751-2.0435229.622751-3.2698282 0-1.1391227-.201507-2.176692-.607398-3.1088757-.403013-.9331417-.964353-1.7369465-1.679221-2.4114145-.712949-.6725518-1.566953-1.201396-2.557213-1.5855744-.99218-.3841785-2.064003-.6054883-3.21259-.6687197v-5.7224389l-3.822866 1.462944v4.2594949c-1.135153.0632314-2.1993.2950797-3.195317.7003353-.994099.4062137-1.855779.9436803-2.583122 1.6181483-.727342.6715938-1.299237 1.4725244-1.716643 2.3941695-.417407.9235613-.62563 1.9448437-.62563 3.0619312 0 1.2263053.190951 2.3194416.579571 3.284199.382862.9637994.933647 1.7934716 1.651394 2.4880586.715828.6965031 1.571751 1.2358858 2.568728 1.6200643.99218.3803463 2.101425.6035722 3.321019.6658455v6.4448094l3.854531-1.462944v-5.0106069c1.130356-.0613153 2.183947-.2931637 3.164612-.6840485.980665-.393759 1.826992-.9360159 2.540901-1.6200643.715828-.6821324 1.281006-1.500308 1.696493-2.4554849z" fill="#1a1919"/><path d="m83 19.5921936h5.9686369v18.4078064h4.2624849v-18.4078064h5.7688782v-3.5921936h-16z" fill="#1a1919"/><path d="m165.969693 22.0792602h-4.587742l-5.390881 6.3662956v-6.4455558h-3.99107v15h3.99107v-7.2947726l5.26397 7.2947726h4.74496l-5.919361-8.0269862z" fill="#1a1919"/><path d="m176.665829 31.8390805c-.150754.568179-.368187 1.0637628-.647468 1.4944948-.284113.4287961-.635872.7646703-1.057209 1.0047187-.422304.2410163-.901624.3620085-1.44569.3620085-1.103595 0-1.947236-.4171809-2.533823-1.2408954-.584654-.8266182-.877464-1.9958862-.877464-3.506836 0-1.338657.284113-2.4508167.844607-3.3297036.566293-.8808227 1.386742-1.322202 2.46811-1.322202 1.148048 0 2.01295.4375075 2.599536 1.306715.586587.8692075.876498 2.0065336.876498 3.4110103 0 .6475499-.075377 1.2544465-.227097 1.8206897m2.251643-7.7009075c-.653266-.6911071-1.44569-1.2205686-2.370506-1.5874168-.924817-.3668482-1.932741-.5507562-3.031504-.5507562-1.095864 0-2.106687.183908-3.031504.5507562-.926749.3668482-1.719173.8914701-2.388867 1.5709619-.663897.6814277-1.180905 1.522565-1.547159 2.5156685-.364322.9940714-.547932 2.1207501-.547932 3.3810042 0 1.2137931.177812 2.3133696.53247 3.2987296.352725.9863279.854271 1.8226255 1.499807 2.5147005.646502.6901392 1.42443 1.2254084 2.340549 1.6048397.912253.3755596 1.937572.5633394 3.078855.5633394 1.093932 0 2.106688-.183908 3.032471-.5497883.924816-.3649122 1.719172-.8972776 2.386934-1.5864488.666796-.693043 1.188636-1.5361162 1.561655-2.5301876.378817-.9940714.567259-2.1236539.567259-3.3810042 0-1.2137931-.184577-2.3162735-.550831-3.2987296-.363355-.984392-.874565-1.8226255-1.531697-2.5156685" fill="#1a1919"/><path d="m98.2900142 56.6101113c0-.8865225-.2736367-1.5788451-.8199363-2.0759969-.5472734-.4971517-1.3058605-.7457276-2.2767351-.7457276h-4.5057543v5.622087h4.5057543c.9864554 0 1.7479639-.2369238 2.2874469-.7117426.539483-.4738477.8092245-1.1700543.8092245-2.0886199zm-3.189182-4.3432806c1.5259383 0 2.7227337.3612118 3.5933073 1.0836354.8705737.7224236 1.3058605 1.812856 1.3058605 3.2712972 0 1.4137753-.4236013 2.4964397-1.2708038 3.2489643-.8472026.7525246-2.0332861 1.1292724-3.5592245 1.1292724h-6.1699717v-15h9.5909171v1.5895262h-7.9033286v4.6773045z" fill="#1a1919"/><path d="m109.349559 55.8300158c-.463574-.2678437-.927148-.481719-1.390722-.6396269-.462594-.1579078-1.019275-.2368618-1.667102-.2368618-.740935 0-1.36622.2008828-1.875858.6046473-.509637.4027651-.764456.9834263-.764456 1.7429833 0 .7585575.215616 1.3362205.647828 1.7309902.433191.3957691 1.057497.5926543 1.876837.5926543.601764-.0309819 1.177067-.1968852 1.725907-.4977097.54786-.2998251 1.030055-.6646123 1.447566-1.0913633zm-2.442339-6.8300158c1.317216 0 2.328651.3128175 3.035282.9364537.704672.6256351 1.057498 1.5620888 1.057498 2.8113601v8.0393104h-1.650441v-1.138336h-.047043c-.604705.553677-1.205489.9174648-1.802353 1.0913634-.596863.1728991-1.166285.2598484-1.709245.2598484-.449853 0-.899706-.0669609-1.348579-.1998834-.449853-.1349213-.857563-.3477971-1.221169-.6396269-.364587-.2908303-.659589-.6646123-.884025-1.1223453-.224437-.4567336-.337145-1.0164071-.337145-1.6780211 0-.5676689.104868-1.0793704.313623-1.536104.209735-.457733.503757-.8475056.884025-1.1703173.380268-.3238111.830121-.5716665 1.348579-.7445657.519438-.1738985 1.08984-.2608478 1.709245-.2608478.496897 0 .996733.0509703 1.50049.1519114s1.034956.306821 1.593597.6166403v-1.4341634c0-.8934788-.220516-1.5430999-.660568-1.9488632-.440053-.4067627-1.099641-.6106438-1.980726-.6106438-.5557 0-1.072198.071958-1.551454.2138753-.478275.1419172-.95753.3318064-1.435805.5686682l-.557661-1.3192304c.54198-.2638461 1.116302-.4777213 1.721007-.6406263.604704-.162905 1.278993-.2458566 2.022868-.2458566z" fill="#1a1919"/><path d="m120.394219 60v-5.0610996h-5.789391v5.0610996h-1.604828v-11h1.604828v4.5435195h5.789391v-4.5435195h1.605781v11z" fill="#1a1919"/><path d="m131.869003 49-4.803848 5.0821218 4.934845 5.9178782h-1.847704l-4.608726-5.6246971v5.6246971h-1.54357v-11h1.54357v4.8784181l4.564755-4.8784181z" fill="#1a1919"/><path d="m18.3747053 55.1091359-.8640172 1.4731984c-.3081661-.9705551-.8668972-1.9777713-1.2269043-2.6897689-.6912138 1.433643-1.7865955 1.462586-2.8406964 1.4703041.2332846-3.4355334-4.05896064-6.8903622-2.1725232-10.8092436.3763275-.7843551.1324826-1.743333-.6806535-2.1543235-2.88005718-1.4703041-1.54659071 4.6289495-4.42472785 4.8122552.55105094-.6917376.75937507-2.1398521.84193671-2.2652717-.61249216.1601512-2.07940128 1.0959747-2.73797436-.10323 1.6819534-.9203873 2.165803-2.3048271 2.42980825-3.6950556.33504665-1.7587693.4886497-2.5730322.82945646-3.2966071.35424704-.7727779.92257832-1.4423258 2.13796246-3.0264724-.28800572.0443793-3.52807006.7293635-4.25384447.3878361 5.5997912-3.4557935 4.33736612-7.8512695 12.8796157-11.7691862-2.2387644-1.6709755-4.5303299-3.003318-2.8877373-6.1976598 2.3395665 2.8248362 6.7854147 1.8475278 9.1873824.5344806-2.3731671-.4775594-5.4298678-2.5768912-6.1575622-4.9154852.8956977-.1389263 2.0534807.8354878 2.720694 1.2898928.3206463-.8625012.4483289-1.8668231 1.4889895-2.0848603-1.3872275 2.9878817 1.355547 4.5411557 3.9715989 4.5536977.404168 0 2.0966816-.1688341 2.0966816-.1688341-.2688053-.5595646-1.363227-2.0858251-.5673712-2.7042404.6393727.6039438 1.4016278 1.0853622 2.0976416 1.6208076 5.086181 3.9555426-2.418288 7.6235847-5.488429 9.2878069-4.8183356 2.6164466-3.52903 5.7278185-1.5158701 6.5237509-.0086401.3540693-.2246444.5093967-.5587311.6184153-1.4073879.4727355-2.7293341-.5364102-3.8515964-1.1837685.0681613 1.9526874-.0643213 3.8291581 2.0822813 4.903908l-1.4803494.5441283c1.2729853.9705551 1.659873 1.4857404 3.1930234 1.6864118-.7161742.3482807-1.6041918.3424921-2.3645269.4138848.1920038.541234.3504069 1.272527.7526549 1.7578045-3.1373423.3733646-4.3920872-1.4259248-5.3617064-1.3516378-2.0688411.1543626-1.9401986 4.0684202 3.1517425 4.0742088l-.5280104.8750432s.9657791.5663179 1.8480366.6753365c-.3379267.2749585-.6652932.6463936-.9494588.9300349l.8131361.7033148c-2.0774812.3752941-2.6669329-1.8465631-4.0147997-.7747075-2.0554008 1.6372087 2.4778092 5.093967 6.8247755 4.5778169-.3657672.4698413-1.3853075 1.1606141-1.8278763 1.520472 3.5434304 3.3631759 1.7952357 6.5285747 3.2525446 8.8478733-3.0528606-.2035657-5.3156255-2.4562954-5.844596-4.8923308m3.982159-3.7818846c.9830596-.7853199 1.7952357-1.1770151 1.7568349-3.0708517-1.4755493.756377-5.6631524.7168215-7.4123071-1.7037775-.4944099-.6869138.0336006-1.0332649.5126501-.4920309 1.1961838 1.3641797 3.4138278.7457644 4.2231239.351175-.1276826-.466947-.4876897-1.078609-.7900957-1.3400607.302406-.3010071 1.157783-.7447997 1.3353865-1.5127538-.4598491-.2498745-2.2358844-.4283563-2.2358844-.4283563.2860857-.2739937.6412927-.6608651.4291285-1.6825528-1.814436.5605294-4.0560805-.1997066-4.5658506-.8760079-.50113-.6627946.0115202-1.285069.4300885-.8480297.904338.9560835 5.3617065 2.0491639 7.0206194.3888008-.6163322-.1697989-1.2950657-.7235748-1.4189082-1.0651021 1.5341105-.1543627 2.7590948-1.0651022 2.8589368-2.1996676-.8486568 0-2.4518887-.0617451-2.9962195-.4746651.7363346-.2730289 1.1990638-.541234 1.4313884-1.3680389-2.8061357-.1707636-3.0279001-2.2652716-3.0423004-2.6125876 1.8259563 1.0593136 5.0429802.5904371 4.2116037-2.0192562-1.5168302-.0810404-3.0509406-2.5537369 1.1299424-4.8276914 3.7987954-2.0646003 8.1217613-4.2932108 7.7415937-7.9631825-.249605-2.3453473-4.0973614-3.9487892-4.585051-5.1373815-1.6051519.7679541-1.9305984 1.6593983-1.205784 3.1528568 0 0-3.575111.3579284-3.8573566-1.8542811-.1238424-.9927447.5356907-1.9218148 1.2432247-2.6299534-.4003279 0-3.0960615-.7245396-3.9082376 1.4818813-1.51299-1.0361592-2.8032556-.9985333-3.8218359.0945471 1.6243523.9705551 2.6304523 4.292246 5.3156256 5.2734135-1.910438 1.0419478-4.9988193.6039439-6.8017351-2.5923275-1.7049938 2.5826799-2.6861333 5.139311.9696193 7.8686354-6.65581218 3.0457677-6.60781122 8.8623448-12.39672617 11.6350837.58849169 1.5841465 1.82691628 1.5841465 3.40326758 1.3371663-2.50372972 3.2695936-.37056736 6.688726-4.33160601 8.0876373.36960734 1.3323425 1.11362211 2.3945504 2.57669116 2.0057495-.41664827.6521822-.6902537.6377107-1.33730655 1.3545322 2.165803 1.3709331 4.73481401.3772237 5.31658556-4.0192172.10464208-.7843551 1.18082343-.2942537.80737603.4756299-2.46916902 5.1315929 3.774795 8.9906588 1.5657911 12.7551776 1.9497987-.0820052 3.4311081-.2334735 4.2461643-.8962681.3964879.7901437.6336126 1.5725694.5491309 2.3434178 1.0752214-.219002 1.4678692-.8615365 1.5417906-1.5908999.705614 2.0636354 3.2256641 4.2719859 7.2606242 4.2719859-2.1398825-3.061204-.147843-6.1706464-3.169983-9.6727487" fill="#d0d5d6"/><path d="m12.6220185 42.2528432c.7148897.7589402 1.5839712.836829 3.2305536.7304444-1.8091848-.221318-2.8240477-.6687034-3.4538982-1.8892769-.0943841-.628809-.1551264-1.3022617-.1822268-2.0232074-.0551352-1.9339204.5709773-4.2382872 1.886748-6.7601725-.009345 1.5824711 1.2260591 4.0701614 3.9781506 4.4843016-2.4764151-1.099941-3.9295568-3.5771828-3.1380385-5.9727364.515842-.8387287 1.0980331-1.7031038 1.747508-2.5807769.3270737-.4245886.643868-.8330295.9550552-1.2139244-.3336151 1.2234231 1.12233 2.4867404 2.0960751 2.6976099-.5289249-.5233743-1.6605998-2.2245783.9541207-5.0675173-.7307761.3495495-1.5372463.8463277-2.1484069 1.3336072 4.752848-5.2204451 8.6571734-5.3657741 10.4523407-7.9911945-2.5997686 1.8056889-9.4804646 2.780248-12.5717782 1.9272713 1.7063902 1.1597823 5.8191082 1.0533977 6.8236917.8377789-3.3539071 3.3140708-10.6756853 6.7354761-11.9428622 9.7816856 1.7848878-1.9890124 2.9371217-2.3537596 4.4809095-2.8666855-1.2157796 1.8446333-2.3110092 3.4679486-3.0660822 5.3496265-1.9474902 4.3000282-4.55286578 4.3541704-4.7238786 7.9019074.88870595-2.7489025 2.6913492-3.4451518 3.9417052-5.2508407-.2214756 1.1531332-.3233357 2.4297486-.2840868 3.9067851.0439213 1.604318.359781 3.0139142.8616055 4.2743819-.1270915 1.7543963.0271004 4.7483634 2.0044945 6.7250276-1.3438056-1.7296999-1.632565-4.5393936-1.5129494-5.6355351 1.5475258 3.0367109 5.9630206 7.2294046 8.0964756 10.048597-2.133455-3.6246759-7.3647651-7.8601135-8.4852261-12.7471568" fill="#d0d5d6"/><path d="m62.2126012 27.6800503c1.538044.5148256 2.6967162.8776731 4.478642 2.8666855-1.2651953-3.0462095-8.5919284-6.4685647-11.9455371-9.7826355 1.0091662.2156188 5.1196494.3229533 6.8258877-.836829-3.0882353.8529767-9.9711221-.1215824-12.5715938-1.9272713 1.7968764 2.6254204 5.6989855 2.7716992 10.4523449 7.9911945-.6092373-.4872795-1.4175046-.9840577-2.1491501-1.3336072 2.612619 2.842939 1.483848 4.5412934.9540358 5.0675173.9745928-.2108695 2.4285396-1.4722871 2.096823-2.6976099.3120939.3808949.6316632.7893358.9549702 1.2139244.6540891.8776731 1.2315564 1.7420482 1.746418 2.5807769.7923824 2.3955536-.6653021 4.8727954-3.1340215 5.9727364 2.7518466-.4131903 3.9871407-2.9018305 3.9731245-4.4843016 1.3156537 2.5218853 1.9463825 4.8262521 1.8865801 6.7601725-.0233604.7209457-.0878349 1.3943984-.1794074 2.0232074-.6325976 1.2205735-1.6473703 1.6689087-3.4498531 1.8892769 1.6426982.1063846 2.5060959.0284958 3.2293316-.7304444-1.1240989 4.8870433-6.354009 9.1205812-8.4882085 12.7471568 2.1341995-2.8191924 6.5436949-7.0118861 8.095755-10.048597.1205393 1.0961415-.1691287 3.9058352-1.5090771 5.6355351 1.9734805-1.9766642 2.1276586-4.9706313 2.0015129-6.7259775.499911-1.2614176.8120049-2.669114.85966-4.273432.0467207-1.4770365-.0626057-2.7536519-.2831272-3.9067851 1.2502448 1.8056889 3.0527276 2.5019382 3.9422889 5.2508407-.1691288-3.547737-2.7742725-3.6018792-4.725327-7.9019074-.7522026-1.8816779-1.8445315-3.5049932-3.0620718-5.3496265" fill="#d0d5d6"/><path d="m70.9975004 44.9464623c.076805.1254183.2803382 1.5735168.832374 2.2662115-2.8801869-.1842683-1.5428201-6.283455-4.423967-4.813167-.8131727.410986-1.0560685 1.3699533-.677804 2.1542998 1.8846023 3.9188384-2.4097563 7.3736292-2.1687806 10.8091248-1.0608688-.007718-2.1630203-.0366607-2.8504249-1.4702879-.3552231.7119898-.9187796 1.719195-1.2240794 2.6897394l-.8621359-1.4731823c-.5337947 2.4360086-2.7957014 4.6896783-5.8458192 4.8922771 1.4487339-2.3192731-.2908989-5.4846372 3.2517309-8.8477761-.4435488-.3569597-1.4602547-1.0506192-1.8279586-1.5204553 4.3500422.5161444 8.8834562-2.9405759 6.8231626-4.5777666-1.3450472-1.0718438-1.9383657 1.149989-4.0111402.774699l.8122127-.7033071c-.2832184-.2855677-.6153999-.6541044-.9504616-.9300246.8851774-.1090174 1.8481198-.6753291 1.8481198-.6753291l-.5280342-.8750336c5.0940904-.0057885 5.2150583-3.9198031 3.1547646-4.0741641-.9687028-.0742862-2.2292646 1.7269131-5.3638679 1.3525878.3965057-.486237.5587562-1.2194514.7536489-1.75875-.754609-.0713919-1.6522672-.0656034-2.3646334-.4138803 1.5332194-.2016339 1.9182044-.7158488 3.191247-1.6863932l-1.4756157-.5441223c2.142859-1.0747381 2.0113304-2.952153 2.0756546-4.9038541-1.1175125.6492807-2.4452786 1.6564858-3.8469695 1.1837554-.3341017-.1090174-.5520358-.2643431-.5606764-.6184085 2.0132506-.7959236 3.2958938-3.9072613-1.5159383-6.5236792-3.068359-1.6642039-10.5770061-5.3322057-5.488676-9.2886695.6950851-.5344748 1.4535342-1.015888 2.0938958-1.6198251.7978117.6184085-.292819 2.1446523-.5664368 2.7042107 0 0 1.6916298.1707618 2.0929358.1707618 2.6228901-.0144714 5.3705884-1.5696578 3.9804182-4.5555773 1.0407075.2180349 1.1635955 1.2223457 1.4813761 2.0848375.6691634-.4544 1.8289186-1.4288035 2.7265768-1.2898786-.7286872 2.3385682-3.7816853 4.437877-6.1568793 4.9154311 2.3982355 1.3130328 6.846204 2.2903305 9.1849157-.5344747 1.6426666 3.1943067-.6451618 4.5266345-2.8878673 6.1995212 8.5416741 3.9159441 7.2820724 8.3094423 12.8840357 11.7671274-.7238869.3415236-3.9717776-.3453826-4.2607563-.3878319 1.2221592 1.5841292 1.7914762 2.2536697 2.1457392 3.0264392.3389019.7235669.4886717 1.5358914.8237334 3.2965708.2678574 1.3902132.7517287 2.7746379 2.4308777 3.6930855-.6576427 1.2011211-2.1236578.2653079-2.728497.1051584m-.3331416-8.7339349c1.5754622.2460127 2.8149026.2460127 3.4034207-1.3390812-5.7901355-2.7707788-5.7421324-8.587292-12.3992042-11.6330263 3.6587973-2.7292943 2.6728133-5.2858974.9744632-7.8695136-1.8010769 3.1972009-4.9001579 3.6352001-6.8010812 2.5932638 2.6804939-.9811568 3.6904794-4.3028112 5.3129846-5.2733556-1.0147858-1.0930684-2.31375-1.1306939-3.8210478-.0945461-.8198932-2.2083262-3.5080676-1.481865-3.9122538-1.481865.7037257.707166 1.370969 1.6371907 1.2452008 2.6299245-.2784181 2.2121852-3.8556101 1.8552255-3.8556101 1.8552255.7200467-1.4944068.400346-2.3858413-1.2048781-3.1537869-.492512 1.189544-4.3356413 2.7920035-4.5823773 5.1363602-.384985 3.6708961 3.9391355 5.8994822 7.7381019 7.9640598 4.1810713 2.2739295 2.6459317 4.7465988 1.1319135 4.8276383-.8400545 2.6096647 2.3799943 3.078536 4.2079529 2.0192341-.0086405.3473121-.2390555 2.4417971-3.0453175 2.6125589.2361753.8267958.6979653 1.0949979 1.4352931 1.3699533-.5501157.410986-2.1486194.4727304-2.9982745.4727304.1027267 1.1345529 1.3268061 2.0433529 2.8619456 2.1967491-.1228879.3424884-.8035721.8981877-1.418972 1.0679848 1.6580275 1.6603448 6.1127165.5672764 7.0199753-.3887966.4147469-.4370345.92454.1852331.431068.8470556-.5136333.6772586-2.7534586 1.4374863-4.5679763.8769631-.2083335 1.0216765.1430493 1.4085436.4262677 1.6825342 0 0-1.7751552.1784799-2.234065.4283516.1718512.7679457 1.0349472 1.2117334 1.3354467 1.5127373-.3004995.2614488-.6595628.873104-.7882112 1.3400459.8131728.3945851 3.0318767 1.0120289 4.2194737-.3511712.4848315-.541228 1.0109456-.1958454.5193937.4920255-1.7530737 2.4205725-5.9379851 2.4591627-7.416481 1.7037589-.0412827 1.8938158.7728501 2.2855066 1.7569139 3.0717827-3.0232361 3.501099-1.0272666 6.6105072-3.1672454 9.6716776 4.0293813 0 6.552425-2.2083262 7.2599909-4.271939.077765.7293554.4646701 1.3718828 1.5399399 1.5908824-.0825654-.7708399.1564901-1.5532569.5462754-2.343392.8179731.6627873 2.3051095.814254 4.2473155.8962582-2.205263-3.7644774 4.0399421-7.6235009 1.5649015-12.7550374-.3677038-.7718047.7075659-1.2599711.8112526-.4756246.5789176 4.3963925 3.1509244 5.3900911 5.318745 4.019173-.6538024-.7168137-.9216597-.7023423-1.3373667-1.3545173 1.4583346.3887966 2.2023829-.6733996 2.5777672-2.0057274-3.9631371-1.3988961-1.8308388-4.8189556-4.3356412-8.0875485" fill="#d0d5d6"/><path d="m30.7302995 52.1533669 1.1932895-.9183245c.2117126-.1639516.3474012-.2673973.5918331-.2351925l1.6811909.2234817c.0914214.4098791.3599115.8099992.3599115.8099992l-1.7880096-.3825538c-.2530928-.030253-.3271922-.0175663-.5658501.1551685l-.8458883.6489753c-.1674455.1346746-.1722571.3435178-.0779488.551385l.1376133.2996022-.5927955.4537947-.2251852-.4323249c-.229997-.461602-.2453942-.8812401.1318392-1.1740109m2.7320555-3.2048645-.311795.1668793c-.2136373.1258915-.3233429.1824938-.5090727-.0546505l-.1356885-.1717589c-.0654385-.0809999-.0885344-.2849636.0500412-.4372044l1.3309027-1.5760829-1.2279334-1.0207942 1.5637866.5845657.5716242-.7231439c.1674454.1463854.1087433.5640718.1087433.5640718.6332133 0 2.4722263.9261316 2.5424764 3.2478042 0 0 .4147644.6236018.9450083.6567825l2.7089596.1649276c.4474836 0 1.570523-.8666017 3.0140183-.0458675.3647231-.2244576.7554292-.4020719 1.1567209-.4469634 1.2702759-.0956385 2.2066232.8031679 2.9043127 1.7068538.5090726.6548307 1.2067621 1.6580587 1.2067621 1.6580587-.2992847.361084-.5966448.4830719-.8439636.391337-.3772335-.1932287-.4975248-.501614-.6158914-.9261317-.189579-.6743487-.9219124-1.2511072-.9219124-1.2511072.2473189.4537947.3002471.9671196.4186137 1.4375047-1.0576009-1.0608063-1.2587279-2.3607087-1.9977976-2.5373471-.3291169-.0829517-.7073127.0575783-1.0633749.4752646.3743465.8763607.3560622 1.896179.737145 2.5754073.2906237.5103971.3502882.5552886.4821274.6675174.3127574.2273854.1337639.6343368.0866098.932963l-.4012917 2.5510097h-.6745935l.4445965-2.497335c.1356886-.7592523-1.9698899-.7592523-3.0476998-2.2094438-.9190254 1.0871557-3.4951834.8148788-4.6085995.6450717-.4494082-.0663613-.8872684-.0390361-1.1355496.4108551-.1433872.2537347-.3878191.1776143-.5350556.14053l-2.0314792-.4450117c-.3570245-.0839276-.5109973-.0117108-.6697818.3200961l-.408028.8539149c-.0894967.2000601-.0856474.3444937.0760241.5045417l.1943907.2098191c-.1154796.4118309-.4830898.722168-.4830898.722168l-.4445966-.5055176c-.2145996-.2556865-.2251852-.6284814-.0538904-.9905413l.6572715-1.3896854c.0769864-.1522409.215562-.321072.4946377-.321072l2.5145689-.0419638-.7708265-1.2706254c-.5745111-.9554087.3772335-2.6544553.2357709-3.4576233-.0712124 1.0773966-1.3539986.5845658-1.553201.7319271m10.4624543 5.877862-1.0845462 2.7120336h-.6745935l1.0835838-2.6261542c.1125927-.3376623-.1000823-.4977104-.3704971-.8695293.4012917.231289.6899908.3796262 1.1788545.571879-.0442672.0741686-.0943083.1180842-.1328015.2117709m-13.230116-.3074094 1.2202347-1.0490954-.1857297-.3786502c-.1328016-.2664215-.0615892-.2869154.0808357-.391337l.640912-.4869755c.1501235-.1249155.306021-.110277.4917507-.0653855l1.9333214.461602h-2.0401401c-.4744288.0312289-.612042.2156745-.7794874.5679754l-.1414626.2927708-.5254323 1.0930111c-.1789934.3766984-.2704148.8773365.1972777 1.4462878l.3714595.4450116-.7515799 1.5458299h.6341756l.518696-1.0744689c.0413802-.0380602.8112444-.7465656.9719535-1.4853239-.2194113-.180542-.3781958-.3093612-.2559798-.5669995l.2367332-.5103971c.0750618-.170783.1029693-.241048.3271923-.1942046l2.0324414.4459875c.2530929.0683132.6245523.1815179.8949671-.2312889.2800381-.4323249.3166067-.3845057.9613679-.3181443l1.0364297.110277c1.4165501.1366264 2.8302132-.2244576 3.3816284-.6665416.1924661.4469635.5754735.7885294.7554292 1.1349749.0654385.1278432-.0433048.310337-.1318392.5367465l-1.1634572 2.8193829h1.7937835l1.0162207-2.5763832c.0943084-.2429997.229997-.4401321.3377779-.5357705l-.5831721 3.1121537h1.7389307l.4638432-3.0838526c.1010447-.6811801.0413802-.9046618-.2819627-1.18377-.7275217-.6206741-.7101998-1.9264319-.9450083-2.7198408.1241406-.0712409.2656031-.1083252.4378602-.0878312.3801205.0390361.6640079 1.0198183 1.1114914 1.6502514.8891932 1.2706254 2.1103902 2.6729976 3.5038444.6977705-.1356886-.2244577-.2848497-.4323249-.4513329-.6265296l-.3887814-.460626c-.2261476-.2566625-1.3068444-1.5077697-1.754328-1.9596127-1.022957-1.0412882-2.5915553-.8841678-3.2161076-.3786502-1.4165501-.7504692-2.9100866.0390361-3.2632618.009759l-2.4385448-.1493131c-.1097057-.0068313-.2800381-.0458675-.3974424-.2371444l.4513329-.1512649c-.4243877-1.7898056-1.4906496-3.289768-3.3527585-3.5454546 0 0-.1087434-.5660235-.3916684-.6753246l-.5562269.6655656c-.1568598.0214699-.329117.0692891-.4686548.1317469l-2.3769557-.8958787 1.7851226 1.8278658s-.926724 1.3291795-1.1894402 1.6004804c-.1741818.2478793-.1568598.4430599.0375309.682156l.3474012.461602c.1799558.2361685.3743465.2293371.6601585.0790481l.3916684-.2049396c.1674455-.1454095.742919.14053.9863885-.0868553-.1578221.5201562-.2328839 1.0198183-.2713771 1.4189625l-1.6013175-.1961564c-.3512505-.0458674-.5090727 0-.7246347.1698071l-1.3655466 1.0666616c-.4465212.3483973-.5860591.9485775-.3079456 1.5311914z" fill="#d0d5d6"/><path d="m35.8665656 19.9292035c.7710386.5176992 2.1334344 1.0707965 2.1334344 1.0707965v-.8827434l-3-1.1172566s0 .3573009.8665656.9292035" fill="#d0d5d6"/><path d="m38 19v-.8490059l-3-1.1509941s.3567134.4083826 1.1202405.9693713c.6793587.500806 1.8797595 1.0306287 1.8797595 1.0306287" fill="#d0d5d6"/><path d="m38 17v-.7976072l-3-1.2023928s.585723.5184447 1.2830995 1.0348953c.6205003.4666002 1.7169005.9651047 1.7169005.9651047" fill="#d0d5d6"/><path d="m47 27.976h3c-.1261181-.485-.5930233-.976-1.4669052-.976-.8291592 0-1.3246869.534-1.5330948.976" fill="#d0d5d6"/><path d="m43 15-3 1.2023928v.7976072s1.1002445-.4975075 1.7172983-.9651047c.6995721-.5164506 1.2827017-1.0348953 1.2827017-1.0348953" fill="#d0d5d6"/><path d="m43 19-3 1.1172566v.8827434s1.3622914-.5530973 2.1327769-1.0707965c.8672231-.5719026.8672231-.9292035.8672231-.9292035" fill="#d0d5d6"/><path d="m43 17-3 1.1509941v.8490059s1.2036108-.5298227 1.8796389-1.0306287c.7642929-.5609887 1.1203611-.9693713 1.1203611-.9693713" fill="#d0d5d6"/><path d="m29.4628691 27c-.8732479 0-1.341187.491-1.4628691.976h3c-.2120489-.442-.7041455-.976-1.5371309-.976" fill="#d0d5d6"/><path d="m38.5004729 15.064329-5.0916681-2.0232584c.4312409-1.0301781 2.4285668-1.90816 5.0916681-1.90816 2.6631012 0 4.65759.8779819 5.0888309 1.90816zm3.7913256 6.3228015-3.4347954 1.8149398v-7.333955l4.66421-1.5942554zm4.0126202 3.0581926c-1.2880482.2254407-2.3916843 1.8101838-3.2995597 3.2341696l-.102136.1655134h-.9665091l-.0009457.168367c-.1030817 1.1005689-1.1405185 2.5968479-3.4366868 2.5968479-1.0601337 0-1.8583075-.3262706-2.4068155-.7714445-.4775803-.3890516-.7745313-.8703721-.9201696-1.327912-.0548508-.1702695-.0888962-.3348317-.1040274-.4974914l-.0075656-.168367h-.9608349l-.1040274-.1655134c-.9116582-1.4239858-2.01624-3.0087289-3.2976683-3.2341696l3.5019403-2.0432341 4.3010599 2.3514315 4.297277-2.3514315zm4.7228437 5.3934534c-.366933.9635922-.663884 2.0051851-.663884 3.0477291v11.2054463h-1.2956138c-.587282-.5726383-1.084722-2.4855544-1.084722-2.4855544-.3215393.6915415.0463394 2.0812832.3924669 2.4855544h-1.6691668c-.4123267-.5612236-.7707484-2.5521403-.7707484-2.5521403-.4983858.5726383-.1825208 2.122186.1267243 2.5521403h-1.1074189c-.0718734-.7952252.1541497-1.6627437.1541497-1.6627437-.5768792-.1074885-1.1953693-.4156859-1.1925322-1.0653735.2922224.2777581.4104354.2739532.8180336.2663434l.4719061-.3738319c-1.5651394.0494637-1.6351215-1.6741584-.3990869-2.4827008-1.2360346.0399515-2.1628241-.6991513-1.7098321-2.0242096-.8832871-.4584911-1.1934779-1.9576238-.5418881-2.6158724-.4719061-.5155647-.5503995-1.5229134-.2487201-2.2135037-.6232186 0-1.3258764-.252075-1.7173977-.6801268-.0302625.0142683-.0652535.0247318-.0983531.0351953.7802054-.3205632 1.4393608-.8171034 1.8876243-1.4363517zm-.6610468 22.2586962c0 2.3381144-1.0733736 4.1112002-2.8579162 5.097622l.641187-1.3098387h-.6194359l-.8208707 1.6760608c-.8492418.3243682-1.8157508.5012963-2.8834501.5012963-3.2588945 0-4.1204305.1341229-5.3224197 1.3421803-1.2105006-1.2080574-2.0701452-1.3421803-5.3224197-1.3421803-1.0620251 0-2.02286-.1750257-2.8730475-.4927353h.0245883l.819925-1.6846218h-.6194358l-.7206262 1.4724984c-.1711723-.0818055-.3366704-.1693183-.5002771-.2653922l.5948475-1.2071062h-.6137616l-.4416436.8998601c-1.3958585-1.0349342-2.2167292-2.6472629-2.2167292-4.6876434v-7.3472722h23.7314855zm-16.1545084-13.4179987 1.0015.1236595c.0747106.5526625-.0690363 1.4877179-.4265123 2.0080387l-.9684004-.2825142c.2572313-.6192483.3234306-1.1909353.3934127-1.849184zm-1.4393609-.7381516s.9173325-.0447076 1.1764553.0542199c.1929235.079903.0624164.4023687-.1834665.3681246-.2610142-.0323417-.9929888-.4223445-.9929888-.4223445zm-.0624164-3.6679288-.8227621 3.0277535.2808739-4.8807424 1.2785913-1.0996176.6496983 1.4354005-1.6426871 4.7390096.4321866-3.1904131c.0425566-.2235382-.1390185-.2473188-.1759009-.0313905zm-.6326757 5.0443533c-.4331322.1769281-.8738301-.0608785-.7376488-.3433927.1995435.1854891.7594.0951226.7594.0951226zm-.8114137.4042712c.1985978.1950014.8029024.121757.8029024.121757l.0236426.1198545c-.2638513.352905-.9948802.1950014-.826545-.2416115zm-.9475949-1.9471603c-.2307517-.1550499-.1267243-.4927353.1295613-.4927353.2789826.0066586.6525355.3262707 1.0232513.4860767 0 0-.9674547.1293668-1.1528126.0066586zm.9173324 2.6805558s.2780369.1198545.6279472.1464889c-.0406653.1921477-.1872493.3804905-.4255666.3262706-.1967064-.0437564-.2856025-.2910753-.2023806-.4727595zm.6506441-1.8273058c-.4652862.151245-.6705039-.1845379-.647807-.4718083.9088212-.3367341 1.3135823-.1198545 1.5812164.0523175.2458829.1550499.4473178.5945165.778314.8722745-.0557965.373832-.1711723.9179335-.3045165 1.2822531-.9305723-.2416114-.9788032-1.0653735-.6298386-1.5695234-.1967063-.2292456-.4028697-.2872704-.7773683-.1655134zm4.0353171.2682458.9967716.1189033c.0974074.5536138-.0879505 1.7207685-.4643405 2.2800896l-1.0156856-.2948802c.4057068-.5364917.555128-1.4896205.4832545-2.1041127zm1.7136149.2111723.8227621.1046349c.1295614.6848829.0453938 1.8729646-.3905756 2.551189l-.9579977-.281563c.4208381-.571687.615653-1.7512077.5258112-2.3742609zm1.4734061.1835867h.0179684c.213729.0323417.4388065-.0028537.6440241-.0894153.443535.6420778.7906082 2.0936492.2581771 3.0030215-.3016794.0019025-.5986303-.0494637-.8747758-.1274643l-.2212946-.0665858c.4501549-.7048588.3820642-1.9424042.1759008-2.7195561zm1.2558944-.4879791.5816077-.5735895c.5967389.5203208 1.375053 1.6874755 1.1310615 2.7937517l-.6355128.5831018c-.1286157.1284155-.2666884.2244894-.4028698.3091485.3943584-.9902266-.1106473-2.5083838-.6742866-3.1124125zm3.4215555.3291243c-.12767.1702695-.2326431.3719295-.2988423.5878578l-.708332.6563462c.1418555-1.0434953-.5532366-2.2762846-1.1896951-2.7785321l.7556172-.7429078.1475297.151245c-.2515571.6658584.2402087 1.9680873 1.2937225 2.1259909zm-1.8819501-5.0424508c-.3726072.7153222-.3347791 1.5400354.102136 2.2876993l-.290331.2872703c-1.2700799-.1569523-1.7713028-2.0632099-1.7713028-2.0632099-.0236426.1664646-.0406652.3405391-.0378281.5070037-.7404859-.2758557-1.2114463-.936958-1.1726725-1.8453791.280874.1588548.596739.269197.9324638.3291243l.0851133-.5593211c-.88707-.1550499-1.4053155-.7134198-1.604859-1.3716684-.0397195-.0057073-.0794391-.0123659-.1182129-.0199757.1560411.0142684.3130279.0266343.4747432.0266343.5248654 0 1.0251426-.0818055 1.4942116-.2197333.3678787.5279306 1.0232513.9055675 1.6805152.9797631-.1040273.4347105-.0539051.9835681.2260232 1.6617925zm-7.2838089-4.2510305c.6128159.8437377 1.6076961 1.4677422 2.7841513 1.7141098.1011903.4451739.3385619.9302994.8076309 1.3250583-.1938693 1.3098387.3659872 2.5331157 1.7675199 2.8593864.1456384.6658584.5589108 1.1709596 1.2483288 1.4116199l-.9740747 1.1319593c-.3707158.4347104-.8568075.5745407-1.2606229.5222233l-4.3530735-.4974914c.1872493-.4870279-.3130279-1.0511051-1.6899723-.8094936l1.7107778-4.8094004-1.0450025-2.2344307-1.9774662 1.6979391-.1456383 5.0481581-.8388391-.4166371c-1.1083646-.4775156-1.4299038 1.5295719-.3792271 1.538133l.4161096.0047561c-.025534.2092698.0359367.4337592.197652.50415-.197652.0846591-.25534.4594423-.0075656.5907115-.2534486.1198545-.2837111.5003451-.0822762.6668097-.220349.3690758-.2534486 1.1757157.5097342 1.3773757.6213272.1664646 1.0137942-.5117598 1.145247-.903665l6.7702919 2.1088688c.9608348.2768068 1.6417414.1236594 2.4380238-.5802481l1.76752-1.5543038c-.220349 1.0159097.1418555 1.9328919.9107125 2.2353819 0 0-.111593.9093723-.0747106 1.3222046h-17.6307517v-11.2054463c0-1.042544-.2988423-2.0841369-.6572639-3.0477291zm-1.1433556-15.5649166 4.6594815 1.5942554v7.333955l-3.4310126-1.8149398zm11.3210174-.8722745c0-1.7949641-2.9959889-3.4015854-6.2993315-3.4015854-3.3061796 0-6.3021686 1.6066213-6.3021686 3.4015854l.0699821.4356616 1.314528 7.6183718-6.2454264 3.6622214c-.6657753.3928564-1.4979945 1.475352-1.6039133 2.5616525h1.1395728c.1881951-1.0853493 1.0431111-2.2915043 2.6394587-2.2192111 1.442198.0789518 2.2933312.9616899 3.142573 2.2192111l.2184575.3338804.3149193.4974914h-9.1865645c.6723952 1.3612049 1.3173651 2.8070689 1.3173651 4.3756411v19.2109671c0 4.9425721 3.7761943 7.2949548 7.8635252 7.2949548 3.1548671 0 3.5804337-.142684 5.3224197 1.6075725 1.7363117-1.7502565 2.1590412-1.6075725 5.3224197-1.6075725 4.0863851 0 7.8616337-2.3523827 7.8616337-7.2949548v-19.2109671c0-1.5685722.63835-3.0144362 1.3126366-4.3756411h-9.191293l.3187021-.4974914.2194032-.3338804c.8426219-1.2575212 1.6984836-2.1402593 3.1406816-2.2192111 1.588782-.0722932 2.4484265 1.1338618 2.6356758 2.2192111h1.1386271c-.1021359-1.0863005-.9390836-2.1687961-1.6010761-2.5616525l-6.2454264-3.6622214 1.3173651-7.6183718z" fill="#d0d5d6"/><path d="m49.9931715 38 .0068285-.6393797c-1.5449489-.0454382-1.9017382-2.3606203-1.9017382-2.3606203-.4506813 1.7028489.7297963 2.9707898 1.8949097 3" fill="#d0d5d6"/><path d="m48 40.9073219-.1409533-.623077c-1.1820162.4394918-1.7917925-2.2842449-1.7917925-2.2842449-.3814932 1.9804948.9407102 3.3813055 1.9327458 2.9073219" fill="#d0d5d6"/><path d="m49.5252815 38.6796176c-1.7667894.265298-2.493615-1.6796176-2.493615-1.6796176-.1953523 1.058476.5305156 2.1314392 1.6978415 2.2464319-.262385 1.3808176 1.0955052 2.0897883 2.270492 1.5972212l-.1694969-.4798907c-1.0208116.3196253-1.9784211-.633818-1.3052216-1.6841448" fill="#d0d5d6"/><path d="m47.9872061 33 .0127939-.6379061c-2.0777281-.5469314-1.9020253-2.3620939-1.9020253-2.3620939-.4494921 1.7101083.7283989 2.9729242 1.8892314 3" fill="#d0d5d6"/><path d="m33.5718954 56-.5718954 2h.4300654l.5699346-2z" fill="#d0d5d6"/><path d="m34.5707733 56-.5707733 2h.4331586l.5668414-2z" fill="#d0d5d6"/><path d="m39.5695538 56-.5695538 2h.4278215l.5721785-2z" fill="#d0d5d6"/><path d="m40.5743287 56-.5743287 2h.4315652l.5684348-2z" fill="#d0d5d6"/><path d="m38.5716154 56-.5716154 2h.4303466l.5696534-2z" fill="#d0d5d6"/><path d="m46 58h.4289456l.5710544-2h-.4302554z" fill="#d0d5d6"/><path d="m35.5690897 56-.5690897 2h.4302554l.5697446-2z" fill="#d0d5d6"/><path d="m36.5686275 56-.5686275 2h.4320261l.5679739-2z" fill="#d0d5d6"/><path d="m34.224 47c-.12 0-.224.119-.224.271 0 .145.104.264.224.264.126 0 .23-.119.23-.264 0-.152-.104-.271-.23-.271" fill="#d0d5d6"/><path d="m34.5067121 8.24756335 1.0166328-2.14522417 1.8928034.99610137 2.0843428-2.04288499 2.0882719 2.04288499 1.8878921-.99610137 1.0107393 2.14522417 1.253356-.19298245c-.3192325.5994152-.5628315 1.12280701-.7877676 1.85672514-1.3712265-.79532163-3.411368-1.4074074-5.4524917-1.4074074-2.0450527 0-4.0793006.61208577-5.4534739 1.4074074-.2288651-.73391813-.4665706-1.25730994-.7916967-1.85672514zm4.9957435.93957115c2.6550324 0 4.7825945.8732943 5.9573702 1.8128655 0 0 .3516469-2.09356725 1.5401742-3.93079922l-2.1383668.23879142-1.1197695-2.3625731-2.1531007 1.11013646-2.0863074-2.05555556-2.0863073 2.05555556-2.158012-1.11013646-1.1207517 2.3625731-2.1373846-.23879142c1.1924563 1.83723197 1.5391919 3.93079922 1.5391919 3.93079922 1.1737935-.9395712 3.3033201-1.8128655 5.9632637-1.8128655z" fill="#d0d5d6"/><path d="m41.4555703 4.99752546c.2767875.03198884.5196293-.24998688.5431301-.6243748.0269824-.37083361-.3751427-1.37315066-.3751427-1.37315066s-.6023174.88265508-.6214662 1.26059732c-.0252416.37083362.1810434.70020021.4534788.73692814" fill="#d0d5d6"/><path d="m44.2606915 4.95655109c.2432199.09792489.5369679.02399484.667142-.15823625.1293176-.17834003.0453896-.79831484.0453896-.79831484s-.7896083.2678343-.9180695.4507139c-.1233228.18093407-.0333999.40661528.2055379.50583719" fill="#d0d5d6"/><path d="m36.5396289 4.99752546c.2796577-.03672793.4835203-.36609452.4582553-.73692814-.0243939-.37794224-.6211712-1.26059732-.6211712-1.26059732s-.4016268 1.00231705-.3754905 1.37315066c.0209089.37438792.2674607.65636364.5384064.6243748" fill="#d0d5d6"/><path d="m33.7377006 4.95655109c.2415741-.09922191.3332352-.32490312.203025-.50583719-.1267835-.1828796-.9157541-.4507139-.9157541-.4507139s-.0813814.61997481.0496854.79831484c.1259269.18223109.4223263.25616114.6630437.15823625" fill="#d0d5d6"/><path d="m71.0157296 25.410743c.219592.5046639.6550382 2.2589257-.38779 3.5963332-1.1848622-2.4499839-2.8182526-4.5467996-4.1367389-5.4519138-.2896745-.1920231.1579194-.5365069.9699424-.6465101 2.4622333-.4805404 5.3449619.5963332 6.7157764.9716951-.6382184.4959794-1.1596325.7150209-1.809064.7999356.9970409.8626569 1.7212272 1.5931168 2.2379691 2.4065616-.9690079.2489547-1.5100451-.3830813-3.590095-1.6761016m3.1013861-.4158893c.7111042-.260534 1.2605513-.9630107 1.533406-1.6075909-1.8071951-.2711483-6.6111197-2.3525249-10.5581685-.6561596 1.4782744-1.4512705 2.8051706-1.637504 2.9294503-3.7227404.6157919.4554519 1.6520791.7121261 2.2342314-.3743969-.4055443-1.2438083-1.4362249-.2364104-1.5782589-.5789643-.2027721-.4728208 1.2969943.1495658 1.6184395-1.4647797-1.1661735-.4139594-1.5147173.5693149-1.7221616.341589-.1924934-.2180766.7410061-.6310711.0532627-1.9318109-1.214764.7323898-.5812179 1.5593438-.8372527 1.6490833-.312101.129302-.0672793-.8809907-1.4072575-.8337086-.1317552 1.4860084 1.2614858 1.5352203 1.0297462 1.7716308-.2728547.2894821-.6363495-.8559023-1.6502103-.275973.0186887 1.2013509.9577948 1.8594403 1.9324093 1.5767128-.1569849 2.2830492-2.183772 1.8575104-3.6947516 4.4281119 3.1966983 1.6925056 4.6422676 4.6461885 6.6101853 6.6841428.650366-.4728208 1.7623423-2.5927951 1.7623423-2.5927951 2.1286404 1.7040849 3.6274724.0077195 3.6274724.0077195-.7335306-.7748472-.7606292-1.3634609-1.8828843-2.4200707" fill="#d0d5d6"/><path d="m38.7878788 65.0616496-1.6028139-.0616496-.1850649.6550268.2012987.0088071c.0660173 0 .0660173-.1266018.1233766-.1959576.0335498-.0253204.3235931-.0737593.5541126-.0495399l.6720779.0517416c-.3971861.8377738-1.4318182 1.6271086-1.4188312 2.1819548.0162338.2961382.3106061.3577878.4848485.3467789.3235931-.009908.4274892-.2432957.5119048-.5988816.1937229-.825664.5876623-1.4564713.8712121-2.3999301l-.1991342.0077062z" fill="#d0d5d6"/><path d="m39.4398124 66.025115.0260552-.4839052h1.3423659l-.0698281-.5412098c-.3678999.0116732-.9067222.1347718-1.4038562.1379554l-.0906722 1.0569509c.6221991-.0275911 1.0276186.2483197 1.0276186.9126282 0 .2461974-.1594581.7099399-.4398124.7438981-.064617.0095508-.1500782-.0137955-.1907244-.0466926-.1354872-.102936.0416884-.2143615.0416884-.3862752 0-.2175451-.2209484-.2960736-.3668577-.2695437-.2313705.0137956-.3157895.1655465-.3157895.3533782 0 .3905199.566962.4977007.8129234.4977007.5492444 0 1.1870766-.3119915 1.1870766-.9476477 0-.8351609-.9171443-1.0102582-1.5601876-1.0272373" fill="#d0d5d6"/><path d="m42.1100196 66.6055038c-.4489194 0-.5137524-.8010713-.5137524-1.1887226 0-.1109176.089391-.2644096.1876228-.2644096.410609 0 .5245579 1.0890089.5569744 1.3959929-.0667976.0291298-.1463654.0571393-.2308448.0571393m-.2858546-1.6055038c-.4508841 0-.824165.3854105-.824165.9119889 0 .8313216.7819253 1.1046942 1.3624754.7887472.0717093.6453386-.043222 1.1091757-.2583497 1.124861-.1836935 0-.1571709-.1568531-.1836935-.2879375-.0481336-.2532058-.2200393-.3204286-.4007858-.2532058-.1886051.0616209-.2180747.2543261-.1856582.395494.0844794.3282712.4390963.3361138.608055.3114655.7475442-.0974731 1.0579568-.7271263 1.0579568-1.4273635 0-.8122752-.4066798-1.5640498-1.175835-1.5640498" fill="#d0d5d6"/><path d="m36.7988896 65c-.0838989.0916115-.4750154.5309051-1.318939 1.0916115l.0690932.1136865c.0937693-.0463576.241826-.1081678.4972239-.2450331l-.4972239 1.5518764c-.0259099.0849889-.1406539.0949227-.197409.0849889l-.2973473-.0397351-.0542875.1843268 1.6138186.2582781.0481185-.1799117-.2776064-.0573951c-.0814313-.0209713-.1344849-.071744-.1184454-.1556292l.7341147-2.5794702z" fill="#d0d5d6"/><path d="m45.4033215 66.1796427-1.1008304-3.6799134c2.3440095-.4960477 3.9781732-1.0086627 5.2241993-1.5037358v2.2960476l1.9340451.8001083c-1.6341637.7650244-3.66121 1.5242014-6.057414 2.0874933m-6.401898 2.1498646c-2.1902728 0-4.3236062-.3362209-6.1513642-.7962101l1.1625148-3.8543584c.7715303.1822415 2.6970344.4249053 4.9888494.4249053 2.2918149 0 4.2106761-.2426638 4.9869514-.4249053l1.1644128 3.8543584c-1.833452.4599892-3.9705813.7962101-6.1513642.7962101m-12.4688019-4.2373579 1.93879-.8001083v-2.2960476c1.2450771.4950731 2.8801898 1.0076881 5.2241993 1.5037358l-1.0979834 3.6799134c-2.392408-.5632919-4.4232503-1.3224689-6.0650059-2.0874933m23.5928826-1.2795885v-2.8125609c-2.1181495.9959935-4.8123369 1.8048728-8.2780546 2.1264754l-.1584816 1.0047644c.2960854.0419058.6671411.0799134 1.1672598.1110991-1.2877818.1832161-2.9447213.2709259-3.8548043.2709259-.911981 0-2.5679715-.0877098-3.8557533-.2709259.4963227-.0311857.8673784-.0691933 1.1634638-.1110991l-.1565836-1.0047644c-3.4676156-.3216026-6.166548-1.1304819-8.2799525-2.1264754v2.8125609l-2.8725979 1.2123444c2.1266904 1.1373037 4.576987 2.0641039 7.4049822 2.8135354l-.3330961 1.178235c1.6227758.4863021 4.2116252.9833243 6.9295374.9833243 2.7150652 0 5.3058126-.4970222 6.9247924-.9833243l-.3349941-1.178235c2.8289443-.7494315 5.2811388-1.6762317 7.4087782-2.8135354z" fill="#d0d5d6"/><path d="m3.39241492 27.0868446c.51678218-.8134448 1.23635231-1.5439047 2.24188147-2.4036667-.65695818-.0878096-1.17187135-.3068511-1.81387742-.8028305 1.37279028-.3753619 4.26228487-1.4522355 6.72097193-.9716951.8074137.1100032 1.2643875.454487.9681489.6465101-1.322327.9051142-2.9549101 3.0019299-4.14266806 5.4499839-1.03730239-1.3354776-.60182229-3.0897394-.38221322-3.5944033-2.07740831 1.2930203-2.62035667 1.9250563-3.5922436 1.6761016m2.23440542.3203603s1.11206292 2.1199743 1.76061055 2.5927951c1.96994003-2.0379543 3.41749081-4.9916372 6.61256911-6.6841428-1.5120318-2.5706015-3.5427147-2.140238-3.6894323-4.4261821.9672144.2807977 1.9101316-.3801865 1.9297563-1.5786426-1.0176778-.5741396-1.3783974.5683499-1.6531423.275973-.2280196-.2412352 1.1643953-.2856224 1.0307608-1.7706658-1.3419515-.0424574-1.0933728.9620456-1.4101705.8327436-.25138231-.0926343.3794097-.9186233-.83825249-1.6490833-.68405888 1.3065294.25138229 1.7127694.0570049 1.9318109-.20559146.2277259-.55790047-.7555484-1.72042675-.341589.31399423 1.6143455 1.81854995.9919589 1.6148275 1.4647797-.14204501.3425539-1.17000233-.6629141-1.57370921.5808942.57659061 1.0845931 1.61669652.8279189 2.22692937.3743969.12802738 2.091991 1.45409238 2.2647153 2.93621988 3.7208105-3.94735609-1.6963653-8.75352383.3840464-10.56553224.6571245.27567946.6436153.82516938 1.346092 1.53445993 1.6008363-1.11673546 1.0672242-1.14383615 1.6529431-1.87929289 2.4239305 0 0 1.49614516 1.6982953 3.62682034-.0057896" fill="#d0d5d6"/><path d="m37 26v1.2806045c.4759849-.5309823 1.3880194-.4282116 1.3880194-.4282116v1.8438288s-.0302212.9098236-.3756071 1.3037783h1.9784134c-.3443065-.3939547-.3766865-1.3037783-.3766865-1.3037783v-1.8438288s.9120346-.1027707 1.3858608.4282116v-1.2806045z" fill="#d0d5d6"/><path d="m77.0332458 25.565084c-.2104112-.2195951-.3374161-.4180937-.511811-.6952246-.0900408-.1419216-.1886118-.2915148-.300452-.4554919.3023476-.3557632.5610965-.7661854.7544474-1.2159237l.7762467-1.7893641-1.9098134-.2780898c-.3231992-.0479465-.8425926-.1860325-1.4482356-.3471328-1.1724264-.3106935-2.6737387-.7096085-4.3153252-.8831749.5610965-.2493219 1.0349956-.6961834 1.3676728-1.3022274l.3137212-.5724815s-.0834062-.8026247-.3923884-1.0548234c.1194225-.248363.2075678-.5226171.2701224-.8218033l.2587489-1.281131-1.220764-.4228883c-.1886119-.0671252-.3800671-.1141127-.5667833-.1447985-.0691893-.234938-.1715515-.4833009-.3108779-.74413l-.7250656-1.3444204-1.3079615.7748158c-.3250948.1937039-.5999562.413299-.8226888.660703-.1952464-.0364394-.403762-.054659-.6236512-.054659 0 0-.7440216-.0843859-1.5705016.2176772l-1.0548994-1.1056468-1.2473024-1.3482561c-1.1657918-1.2638702-2.7467192-1.63689415-4.3598717-1.0164662-.615121-.62042795-1.5752406-1.1363325-3.0642316-1.1363325-.5042286 0-.9468504.06137155-1.2093905.09685197 0 0-2.0510352.37781857-3.20261 1.48538313l-1.399898-.6731691c-.9373724 1.4920957-2.5410469 1.9667662-2.5410469 1.9667662-.108049-.4363133-.2966609-.8448176-.5629922-1.2159237l.0919365-.5274117c0-.0153429.3137212-1.79799448 1.2738407-3.3073509l1.6681249-2.62746925-2.3638087.26850051c.0056868-.23781474-.004739-.51686348-.037912-.84961232l-.211359-2.0453985-1.8529454.84577659c-.2056722.09397518-.3772237.18507357-.5364538.27233623l-.3658501-.7891997-.8482794.44590262c-.0853018-.21288254-.1942986-.4516562-.3440507-.72782815l-.9781278-1.81333736-1.3885243 1.51415108c-.1421697.15630565-.2615923.29918628-.3667979.43727225l-.8425926-.84769446-.8473316.85153018c-.1052056-.13808597-.2217848-.2809666-.3639545-.43535439l-1.3913677-1.52853503-.9809712 1.82292666c-.1497521.27808981-.2568533.51398668-.3421551.72686922l-.8463838-.44494369-.3677457.78824077c-.1601779-.08726266-.333625-.17836105-.5374016-.27425409l-1.85958-.84577659-.2056722 2.05211101c-.0341208.33083098-.042651.60892079-.0369642.84481767l-2.3675998-.26850051 1.6738116 2.62938711c.9629629 1.50743856 1.2700495 3.28721334 1.2709973 3.30063834l.0881453.5274117c-.2691747.3759008-.4568388.7844051-.5648878 1.2207184 0 0-1.5136337-.6549494-2.5268299-1.9686841l-1.4273841.6885121c-1.6292651-1.11235928-2.6386702-1.54579582-4.3939924-1.5956602-1.4899388-.041234-2.4500584.51590455-3.0632838 1.1353736-1.6150481-.61851012-3.1921843-.2435683-4.3541849 1.0174251 0 0-.7648731.840023-1.249198 1.3482561-.4843249.510151-1.1961213.9311214-1.1961213.9311214s-1.0141441-.2301433-2.0557743.0134251c-.2227326-.248363-.4994896-.468917-.8302712-.6654977l-1.31080491-.771939-.72127442 1.3520918c-.13743074.2579523-.23789735.5024796-.30519102.7364586-.18766404.0306858-.37722368.0776733-.56773112.1447985l-1.21223389.4228883.25400992 1.2734595c.06065908.3068577.14880432.5811118.27012249.8304337-.07013707.1352092-.13269175.2809666-.18482065.4343955l-.20472441.6185101.3118256.5724814c.32983377.6050851.80278507 1.0538645 1.3648294 1.3031864-1.64158647.1735664-3.1438466.5724814-4.31911636.8841338-.60279965.1611003-1.12503645.2991863-1.44728784.3480918l-1.91929134.2800076.43693497.9992055.34878973.7949533c.19808982.4449437.45589093.8553659.75918635 1.2082522-.11278798.1630182-.59900845.9292036-.81131525 1.1487986l-.96864975.9992055.93073782 1.0385216c.11563138.1275377 1.15820939 1.2331845 2.84623797 1.2351023.46062993 0 .91936425-.081509 1.37335958-.2435683.45020415.7124853.98191893 1.432642 1.4719306 1.7874463-.89661709 1.0672895-1.91834354 1.9916984-3.37131817 2.6917175l-1.21507728.5859065.5203412 1.4038741c.34120735.8467355 1.00182269 1.7778569 2.28229805 2.1336201-.27391368.8275569-.40660542 1.6157977-.5222368 2.313899-.27391368 1.6627853-.38954506 2.3512973-1.8368329 2.865284l-1.29943132.4602865.37153689 1.3405847c.30139983 1.0922217.74876057 1.8152552 1.23782444 2.2899258l-.86344415.9618071s2.05008748 1.5534673 4.05847185 1.7433355c.02843395.0038357 1.74300088.1141127 2.51166521-.8774213.30803441 1.1238664.79520269 2.1604701 1.23592884 3.1021398.90799067 1.9312858 1.39136777 3.0762486.78288127 4.118606l-1.37146394 2.355133 2.69932924-.1141127c1.1781132-.0498644 2.2737679-.1208253 3.2196705-.35864 0 .0527412-.0028434.1006877-.0085302.1495931l-.220837 2.0223842 2.3647565-.5043974c.2502187-.0757555.4814815-.1735664.6956839-.2905559 1.465296 1.7318283 3.9513706 3.0848791 7.3046806 3.0848791h.1961943l-3.8546953 1.6014137 2.8054827 1.4777117c1.8482064.9733144 3.9020851 1.7893641 6.2440944 2.479794l-.3269903 1.1353736 1.4093759.4171347c.8132108.2426094 3.7513852 1.0298912 7.3302712 1.0298912s6.514217-.7891997 7.3293234-1.0298912l1.4055847-.4171347-.3260425-1.1334558c2.3448527-.6923477 4.3996792-1.5083974 6.2478856-2.4817118l2.8073783-1.4777117-3.8575387-1.6014137h.1942987c3.3504666 0 5.837489-1.3530508 7.3018372-3.0848791.2123068.1141127.446413.2148004.6937883.2905559l2.3638087.5043974-.216098-2.0204663c-.004739-.0479465-.0075824-.0978109-.0075824-.1505521.9449548.2368558 2.0415573.3078167 3.2187227.3576811l2.6955381.1141127-1.366725-2.3532152c-.6094343-1.0442752-.1251094-2.1882791.7809857-4.1195649.4416739-.9397518.9278944-1.9782734 1.2368766-3.1030987.5203412.4017918 1.0776466.6405655 1.6358997.7661854 0 0 .432196.1313734.8463838.1419217 1.1942257.0364393 1.7875474-.3058988 2.6083406-.8285159l1.4880432-.9474232-.8710266-.9627661c.4881161-.4746706.9354768-1.1967451 1.2378245-2.2832133l.375328-1.3444204-1.3032225-.4602865c-1.4482356-.5139867-1.5619714-1.2024987-1.8377807-2.8643251-.1175269-.6990602-.2454797-1.487301-.5222368-2.3148579 1.2795276-.3567221 1.9391951-1.2888025 2.2804025-2.1336201l.5193934-1.405792-1.2141295-.5839886c-1.4539224-.7000191-2.4747011-1.624428-3.372266-2.6917175.4919073-.3557632 1.0236221-1.0768789 1.4766696-1.7874463.451152.1620593.9079907.2416505 1.3705162.2435683 1.6880286 0 2.73345-1.1066056 2.8471858-1.2331844l.9307378-1.0375627z" fill="#fffffe"/><path d="m38.5014161 60c-1.2074695-1.2271104-2.066576-1.3622759-5.3189079-1.3622759-3.8839168 0-6.5244892-2.3287098-6.5244892-6.053487v-7.4534161h23.683962v7.4534161c0 3.7247772-2.634908 6.053487-6.5273214 6.053487-3.253276 0-4.1133266.1351655-5.3132435 1.3622759m-11.8433971-15.5382486v-11.3703215c0-1.0591189-.2992712-2.1163068-.658019-3.0914299h8.6269401c.7920773 1.1112541 2.2280125 1.8565958 3.874476 1.8565958 1.6407991 0 3.0767343-.7453417 3.8697557-1.8565958h8.6288282c-.3663004.9751231-.6608512 2.032311-.6608512 3.0914299v11.3703215z" fill="#ffe52b"/><path d="m27.8926441 61v2.2135466l-1.8926441.7723424c1.6022531.738476 3.587674 1.4713076 5.9247184 2.014111l1.0752816-3.5484478c-2.2934394-.4807149-3.8901259-.9764816-5.1073559-1.4515522" fill="#fffffe"/><path d="m38.999537 64.4587348c-2.2353577 0-4.1151323-.2607876-4.8661162-.4587348l-1.1334208 4.1443234c1.780693.4943444 3.865113.8556766 5.999537.8556766 2.127942 0 4.2114361-.3613322 6.000463-.8556766l-1.1371248-4.1443234c-.7546878.1979472-2.6270545.4587348-4.8633382.4587348" fill="#fffffe"/><path d="m49.1075312 61c-1.2177142.4750706-2.8141077.9708373-5.1075312 1.4515522l1.0775656 3.5484478c2.3407585-.5428034 4.3232565-1.275635 5.9224344-2.014111l-1.8924688-.7723424z" fill="#fffffe"/><path d="m20.9994008 24.9143041c-2.718506 2.8927191-1.5417812 4.6227449-.9922547 5.15625-1.0126435-.2164948-2.5223852-1.5-2.1786884-2.7429123-.3223371.3846649-.6504996.8012242-.9912838 1.2313144-.674772.8949742-1.2786687 1.773518-1.8136319 2.6240335-.8242898 2.439433.6873937 4.959085 3.2573528 6.0753866-2.8583149-.4175258-4.1398963-2.9487758-4.1311583-4.5589562-1.3660493 2.5670103-2.0165489 4.9097938-1.9573243 6.8775773.0262141.7306701.0893223 1.415915.1854409 2.058634.656325 1.2400129 1.710717 1.695232 3.5874571 1.9213918-1.7078043.1072809-2.6087949.0280283-3.3534714-.7451675 1.1641031 4.9726159 6.5962607 9.279317 8.8099014 12.9674613-2.2136407-2.8666237-6.7991778-7.1336984-8.4060091-10.2216495-.1242745 1.1153351.1747611 3.9742268 1.5709082 5.732281-2.0544139-2.0093428-2.2136407-5.0576676-2.081599-6.8398841-.5203997-1.2835051-.8495331-2.7177835-.8941943-4.3492268-.0417484-1.5009665.06505-2.800902.2941812-3.9722938-1.2971157 1.8363402-3.1709431 2.5447809-4.09426426 5.3389175.17961558-3.6059922 2.88452906-3.6620489 4.90690346-8.0364046.7844831-1.9146263 1.9214012-3.5653995 3.1835647-5.441366-1.6019768.5219072-2.8000612.8940078-4.6525289 2.9149485 1.3155627-3.097616 8.9196125-6.5789304 12.4022129-9.9500645-1.0437121.2203609-5.3156502.3276418-7.0875336-.8505154 3.2126916.8669459 10.3604207-.1237114 13.0595089-1.9610181-1.8641184 2.6684923-5.9195469 2.8192655-10.857519 8.1262887.6359363-.4919459 1.4738187-.9974227 2.2340294-1.3550258m3.7107608-.3073453c3.1049223-1.6681701 10.6914959-5.3398841 5.548665-9.3005799-.7019571-.5373712-1.4718768-1.0206186-2.1214056-1.6237114-.8029302.6166237.3019484 2.1456186.5767117 2.7061856 0 0-1.711688.1720361-2.1223766.1720361-2.644718-.011598-5.4195359-1.5705541-4.0146508-4.5608892-1.0524502.2164948-1.1825502 1.222616-1.5039164 2.0876289-.675743-.4552191-1.8476132-1.4313789-2.7515165-1.2941366.7349675 2.339884 3.8272681 4.4478092 6.2253788 4.9262242-2.4272375 1.314433-6.9224814 2.2925258-9.2885526-.5373711-1.6612014 3.1971649.6534124 4.5347938 2.9185104 6.2097293-8.63222756 3.9210696-7.3593842 8.3205542-13.02261483 11.7835052.73593843.3431057 4.01076732-.3460052 4.30203582-.3875644-1.23012398 1.587951-1.80392294 2.2586984-2.16315409 3.0289948-.34272594.7248711-.49904004 1.5415593-.8388533 3.3034794-.26699613 1.3927191-.75438543 2.7796392-2.4544226 3.7007088.66603398 1.2003866 2.14664888.2628866 2.7660799.1024484-.08446786.1256443-.2922394 1.5744201-.84856224 2.2702964 2.90880147-.1865335 1.56217008-6.2918814 4.47388424-4.8218428.8204063.4117268 1.0670136 1.3724227.6873937 2.1591495-1.91072143 3.9249356 2.4330629 7.3849871 2.1961645 10.8247423 1.0679845-.0086985 2.1738339-.0367268 2.8728784-1.4729382.3621438.7161727.9272047 1.7222938 1.2408038 2.6945877l.8708928-1.4748712c.5349632 2.439433 2.8214209 4.6961985 5.9108089 4.8972294-1.4738187-2.3205541.2912685-5.4916237-3.2874506-8.8608247.44467-.3576031 1.4767314-1.0496134 1.8456715-1.5202964-4.3942709.5141752-8.9788371-2.9458763-6.8982091-4.5879511 1.3621657-1.0728092 1.9563534 1.1539949 4.0573703.7799614l-.8213772-.7065078c.2893267-.2831829.6174892-.654317.9592442-.931701-.8912816-.1082474-1.8670311-.6765464-1.8670311-.6765464l.5320505-.8756443c-5.1467145-.005799-5.2787562-3.9249356-3.1874483-4.0815077.9835166-.0715207 2.2524764 1.7300257 5.4214777 1.3559922-.4058341-.4871134-.5670027-1.2197165-.7592399-1.7638531.7660362-.0695876 1.6660559-.0628221 2.3884018-.4126933-1.5476067-.2000644-1.9398483-.7152062-3.2262842-1.6875l1.4971201-.5451031c-2.1699503-1.0766752-2.0379086-2.9555412-2.1049004-4.9126933 1.1340054.6504511 2.469957 1.6585052 3.8932891 1.1887887.3388423-.1130799.5563228-.2686856.56409-.6204897-2.034996-.7963917-3.3369662-3.9143041 1.5330432-6.5344716" fill="#fffffe"/><path d="m67.095126 36.1285283c.2281559 1.1712502.3436902 2.4719952.2941755 3.971814-.0485438 1.6312462-.3747582 3.0653513-.894177 4.3487014.1330101 1.7820012-.0271845 4.8299577-2.0796168 6.8390578 1.3922365-1.7597745 1.6932081-4.6163882 1.5708777-5.7315885-1.6135962 3.087578-6.1941901 7.3541373-8.4107005 10.2204147 2.2165104-3.6876988 7.6505045-7.9958123 8.8155559-12.9658949-.7495164.7731025-1.6456352.8523455-3.3543773.7460439 1.874762-.2270988 2.9262209-.6822629 3.5835041-1.922126.0980585-.6426415.1621363-1.3278035.1873791-2.0593517.0621361-1.9665795-.5922345-4.30908-1.9582573-6.8757802.0135923 1.6099859-1.2689352 4.1409301-4.1301073 4.5603382 2.5660257-1.1180994 4.0796217-3.6374471 3.2563187-6.0765854-.533011-.8504128-1.1330125-1.7288504-1.8126258-2.6237166-.3368941-.4300382-.6679629-.8455808-.9922355-1.2311657.3436902 1.2427623-1.1660223 2.5261124-2.1786462 2.7425811.5504868-.5334407 1.7233053-2.2632575-.9902937-5.1556272.7611669.3575599 1.600004.8629757 2.2330152 1.3548621-4.9369054-5.3063821-8.9883718-5.4561707-10.8602211-8.125307 2.7038902 1.8370848 9.8524517 2.8285887 13.0611975 1.9607812-1.7708782 1.1780149-6.0437043 1.0707469-7.089338.8504127 3.481562 3.3707268 11.0922605 6.8516207 12.4048851 9.9478961-1.85049-2.0197302-3.0543765-2.3917858-4.6495261-2.9126636 1.2621391 1.8757399 2.3970934 3.5253473 3.1786487 5.4387759 2.0271895 4.3747937 4.7330214 4.4298772 4.9106918 8.038333-.9242741-2.7976645-2.7970943-3.5040869-4.0961267-5.3402053m5.4485572 4.9913428c-.3398066-1.7626736-.4922342-2.5782967-.8359244-3.3011475-.3553407-.7721361-.9310702-1.4428025-2.1679665-3.0305617.2932046.0415542 3.5747661.7305818 4.3077777.3875176-5.6640918-3.4625327-4.3903022-7.8614858-13.0252751-11.7820818 2.2679668-1.6747332 4.579623-3.0112341 2.9213665-6.210912-2.3660253 2.8314878-6.8640947 1.8535132-9.2883725.539239 2.4029185-.4783572 5.4903048-2.584095 6.2252581-4.9256291-.9077692-.1372257-2.0796168.8388161-2.7543757 1.2920475-.3213601-.8629757-.4466031-1.8699417-1.4990329-2.0883431 1.4058287 2.992873-1.3718481 4.5516408-4.0242818 4.5632374-.4048554 0-2.1155392-.1720153-2.1155392-.1720153.2747579-.5604993 1.3776733-2.0893095.571846-2.7058587-.6475744.6030199-1.4135957 1.086209-2.1174809 1.6235152-5.1456439 3.9602174 2.4485497 7.6334206 5.5504992 9.2994564 4.8631188 2.619851 3.56797 5.735454 1.5330135 6.5336823.0058252.3517616.2262141.5073485.5650499.6204148 1.4165084.4696597 2.7572884-.5382726 3.8883592-1.1886451-.0650487 1.9549829.0708739 3.8355547-2.1000052 4.9120999l1.4932076.5450372c-1.2883528.9721764-1.6757324 1.4872559-3.223309 1.6872962.7184484.3498288 1.6252467.3430642 2.3883554.4145762-.196117.5411717-.3621368 1.2746527-.7621378 1.7617072 3.1718525.3739883 4.4446712-1.4273404 5.4223436-1.3558284 2.0835003.1565532 1.9611699 4.0752164-3.1883575 4.0810147l.5339819.8774713s-.9737888.5662975-1.8689366.6745319c.3398066.2773505.6747589.6474733.9611674.9315885l-.8213613.7064223c2.0961217.3739884 2.6961232-1.8525468 4.0563208-.7798671 2.0805877 1.6418764-2.501948 5.10151-6.8990463 4.5873968.3708747.4696598 1.4000035 1.1625529 1.8485483 1.5220455-3.5815623 3.3668613-1.8223346 6.5375479-3.2873868 8.8607208 3.0815611-.2039058 5.3689454-2.4603986 5.9106943-4.8995369l.8699051 1.4746929c.3116512-.9721763.8825264-1.9781759 1.238838-2.6942621.6951473 1.4360378 1.8077715 1.4650292 2.8796188 1.4727602-.2427191-3.4393396 4.0990393-6.8989732 2.1932093-10.8234347-.3805835-.784699-.1349518-1.7472115.6854386-2.1588886 2.9145703-1.4698611 1.5621398 4.6347493 4.4737975 4.8212603-.5572829-.6957922-.7650504-2.144393-.8436914-2.2700221.6155355.1604187 2.0932091 1.1007046 2.760201-.1034025-1.6970916-.9199919-2.1854423-2.3086773-2.4563168-3.6992954" fill="#fffffe"/><path d="m43.1083676 30c-.816112 1.0757727-2.2975643 1.7973162-3.986206 1.7973162-.3929789 0-.7742851-.0411242-1.1332187-.1093531.1001902.4439549.3385065.9009948.8307028 1.2963483-.2003803 1.2870018.3793607 2.4917551 1.8170407 2.8085987.1536898.6551839.5748775 1.1524134 1.2869084 1.3870085l-1.0009287 1.1122237c-.3861698.4261967-.8900387.5617198-1.2966356.5131184l-4.4754842-.4897523c.1935713-.477602-.3239157-1.0299753-1.7411686-.7925763l1.7567321-4.728353-1.0709645-2.1936044-2.0310391 1.6683357-.1497989 4.9592095-.8744752-.4093731c-1.1273823-.4710595-1.4590798 1.5029041-.3861698 1.5113158l.4328604.0046733c-.0291816.2028172.0389088.4271313.2062166.4990987-.2023257.0785099-.2645798.4458241-.0106999.5748047-.2548526.1186995-.291816.4934909-.0846267.6551839-.2208074.365445-.2626343 1.1542827.5204052 1.3542961.6449133.161693 1.0495647-.5028373 1.1818546-.8888444l6.9646743 2.0730356c.9795289.2719807 1.687669.1186995 2.5057264-.5710662l1.8180135-1.5272048c-.2285892.9981975.1439625 1.8991923.9347838 2.1964084 0 0-.1264536.9150143-.0768449 1.2954135l2.4356906.0037386h3.8373799v-11.0054076c0-1.0262367.3034886-2.0506041.6809039-2.9945924z" fill="#fffffe"/><path d="m32.7153441 49.2237179.1291401.1734247c.1811677.2378396.2861521.1813527.4933337.0545049l.3019462-.1704517c.1886002-.1516228 1.4270442.3508134 1.4976532-.7462218.1365726.8195557-.7776277 2.543893-.2285501 3.5081344l.7432522 1.298208-2.4267184.0366669c-.2657127 0-.4041434.1704517-.4775396.3270295l-.6345516 1.4042448c-.1644445.3686514-.1532957.7551408.055744 1.0108184l.4292281.5153192s.3511867-.3191015.4645326-.7343299l-.1904583-.2091006c-.1570121-.1625238-.1570121-.3121646-.070609-.5143282l.3911365-.8651417c.1514376-.3399124.3038043-.4122553.6484875-.3270294l1.9612568.4518952c.1449342.036667.3762714.1119829.5156312-.1436947.2387698-.4548683.6652107-.4845983 1.0953679-.4152284 1.0767867.1724338 3.5620363.4469403 4.4492936-.6570319 1.0405531 1.4736146 3.0742769 1.4736146 2.9404915 2.2446114l-.4292281 2.533983h.6475585l.3929946-2.5894789c.0445951-.3012635.2183303-.7164919-.0864031-.9483855-.1244948-.1040548-.1820968-.1555868-.4654617-.6748699-.369768-.6907259-.3502576-1.7243373-.7079477-2.6132629.3381797-.4251383.7042314-.5698241 1.0238299-.4915352.7163093.1872987.911413 1.5063176 1.9296685 2.5835329-.1161331-.4786522-.1644445-1.0038814-.4060015-1.4587497 0 0 .7070187.5846891.8891155 1.268478.1161331.4300933.2341244.7422578.5955308.9404575.2406279.0931539.5258509-.0307209.8129321-.3973904 0 0-.6717142-1.0177554-1.1631897-1.6837063-.6735723-.9156825-1.5747656-1.8323561-2.8029899-1.7263193-.3855621.034685-.7599754.2219837-1.1148783.4469403-1.3935979-.8324387-2.476888.048559-2.9089033.048559l-2.6106734-.1654968c-.5147022-.0346849-.9188456-.6699149-.9188456-.6699149-.0668927-2.3565943-1.8414073-3.2960608-2.4536613-3.2960608 0 0 .057602-.4251383-.1040553-.5727971l-.5462904.7303658-1.5134473-.588653 1.1864163 1.0365843-1.2876844 1.5964985c-.1319273.1575688-.1114878.3636964-.0464533.4489223" fill="#fffffe"/><path d="m31.2871366 52.2597691c-.3660569.3221864-.3511158.7726116-.128867 1.2749682l.2203813.4652627.5733647-.4949378-.1298008-.3200668c-.0924481-.2246827-.0896466-.4536047.0728378-.5977407l.8208267-.7037231c.2306533-.1907684.3025573-.210905.5490854-.1706317l1.7350353.4143912s-.2614693-.4345279-.3511159-.8764745l-1.633249-.2448193c-.231587-.0339144-.370726.0794868-.5733647.2522381z" fill="#fffffe"/><path d="m42 57h.7142129l1.1472237-2.327933c.0407539-.0796089.0947529-.1164804.1385634-.1826815-.5155374-.1667598-.8171167-.2865922-1.2470708-.4893855.2883342.3175978.5134997.4541899.3942944.746648z" fill="#fffffe"/><path d="m39.8473716 19.9133816 2.6720114-.9684636s0 .3097166-.7702456.8035371c-.685001.4487535-1.9017658.9272321-1.9017658.9272321zm0-1.8458342 3.0353156-1.0240784s-.3633042.3634136-1.1335498.8629874c-.685001.444918-1.9017658.9233966-1.9017658.9233966zm0-1.7346047 3.320479-1.1564032s-.6484676.4966972-1.4187132.9953122c-.685001.4487535-1.9017658.9262732-1.9017658.9262732zm2.8333672 4.8365651 1.3192612-7.1695078-5 1.6051566v7.3948434z" fill="#fffffe"/><path d="m34.3807734 27.1454398.1066796.1594623h.983392l.0106679.1640978c.0126076.1566809.0484907.3189245.1037702.4830224.1522608.4487194.454843.9169081.9436295 1.2960945.564432.4348129 1.3810159.7518832 2.468178.7518832 2.3547096 0 3.4185961-1.4574111 3.5213965-2.5310001l.0058189-.1640978h.988241l.1047399-.1594623c.9290824-1.3897323 2.0627955-2.9333642 3.3827131-3.1521613l-3.5941326-1.9932785-4.4068372 2.2918067-4.4097467-2.2918067-3.5892835 1.9932785c1.3140987.2187971 2.446842 1.762429 3.3807734 3.1521613" fill="#fffffe"/><path d="m38.1578627 18.0680729v.7622243s-1.2159692-.47651-1.9006502-.9232982c-.7771231-.5004793-1.1377489-.8628955-1.1377489-.8628955zm0-1.73442v.7651007s-1.2159692-.4774688-1.9006502-.9261745c-.7771231-.4995206-1.4272653-.9952061-1.4272653-.9952061zm0 4.3432407s-1.2159692-.4793864-1.9006502-.9261745c-.7771231-.4947268-.7771231-.8053691-.7771231-.8053691l2.6777733.9683605zm.8421373 2.3231064v-7.3940556l-5-1.6059444 1.3155221 7.1697028z" fill="#fffffe"/><path d="m39.001858 11c-2.6161278 0-4.5763656.8937303-5.001858 1.9404503l5.001858 2.0595497 4.998142-2.0595497c-.4245634-1.04672-2.3829431-1.9404503-4.998142-1.9404503" fill="#fffffe"/><path d="m39.0037766 8.55078282c1.9590873 0 3.9191188.63026897 5.2390243 1.44921718.2143195-.75471698.4456334-1.29265355.7571991-1.90987555l-1.2047207.19670815-.9715185-2.20895223-1.8174665 1.02669611-2.0025177-2.10457648-2.0053502 2.10457648-1.8165224-1.02669611-.9800157 2.20895223-1.2018883-.19670815c.3143981.617222.5419355 1.15515857.7619197 1.90987555 1.3217939-.81894821 3.2761606-1.44921718 5.2418569-1.44921718" fill="#fffffe"/><path d="m71.8168713 24.8279294c.6353406-.0838326 1.1439777-.2980716 1.7656452-.7740546-1.3399579-.3642062-4.1493119-1.4009364-6.5475631-.936131-.7930363.106188-1.2314851.4349982-.9489089.6222244 1.2880003.8727908 2.8795422 2.8968831 4.0362814 5.2600318 1.0163626-1.2891596.5897638-2.9844416.3773759-3.4697394 2.0281676 1.2491062 2.55777 1.856427 3.5002982 1.6189012-.5013448-.7861638-1.2105198-1.4931523-2.1831287-2.3212324" fill="#fffffe"/><path d="m6.87326915 29c1.15715169-2.3631487 2.74891862-4.387241 4.03909715-5.2600318.2870101-.1872262-.1576277-.5160364-.94485531-.6222244-2.39995082-.4648054-5.2135606.5719248-6.5529409.936131.62777757.475983 1.1298174.690222 1.76852869.7740546-.97583422.8299431-1.6819701 1.5350686-2.18309878 2.3212324.94667764.2375258 1.47422947-.369795 3.49878936-1.6198327-.20956291.4880922-.63780015 2.1815113.37447979 3.4706709" fill="#fffffe"/><g fill="#1a1919"><path d="m18.3756582 55.1084026-.8614056 1.4726581c-.3101828-.9708349-.8690882-1.9754464-1.2272869-2.6905445-.6914293 1.4340564-1.785232 1.4630077-2.8415822 1.470728.2343177-3.4345938-4.06214695-6.8894535-2.1722403-10.8084998.3764448-.7836162.1315636-1.7448006-.6799054-2.1559097-2.87999499-1.4678328-1.54803334 4.6283541-4.42514733 4.8146077.55026246-.6948321.7557706-2.141434.8393183-2.2668898-.61268315.1601974-2.07716874 1.0991858-2.73594718-.1022948 1.68151756-.9196875 2.1635974-2.3045265 2.42864529-3.6951558.33515113-1.7592764.48976239-2.5747391.82875479-3.2965925.35531782-.7710706.92286601-1.4408116 2.13958945-3.0263799-.28809553.0414969-3.52724956.7295737-4.25613125.3869829 5.60249763-3.4577549 4.34159959-7.8506381 12.88171133-11.7658241-2.2394626-1.6724224-4.5288617-3.0070791-2.8867172-6.2004117 2.340296 2.8256506 6.7865703 1.8490255 9.1873663.5365648-2.3719865-.4776971-5.4306006-2.5805294-6.1566014-4.9188325.8930962-.1370363 2.0522005.8376587 2.7186615 1.2921948.3207463-.86468.4484687-1.8683264 1.4894539-2.0844964-1.3895808 2.985848 1.3550093 4.542465 3.9709166 4.5540456.4062147 0 2.0992561-.171778 2.0992561-.171778-.2717701-.5597259-1.3646125-2.0864265-.5704291-2.7021249.642453.6021878 1.4039855 1.0847101 2.0982957 1.6212749 5.0868067 3.9547529-2.4190421 7.6228875-5.4901404 9.2866245-4.8150366 2.616236-3.5272496 5.7294699-1.5144222 6.5246667-.0076825.3512762-.2227938.5066484-.557945.6195586-1.4078268.4690117-2.7292249-.5384949-3.8508768-1.1870049.0662619 1.9542154-.066262 3.8302622 2.0819703 4.9053219l-1.480811.54139c1.2724219.97373 1.6603906 1.4880988 3.1911381 1.6878631-.7144769.3493461-1.6027714.3425908-2.3623833.4140041.1911034.54139.3495559 1.2728939.750969 1.7592764-3.1344793.3734722-4.3896155-1.4253709-5.3624181-1.3539576-2.0685258.1563372-1.9379225 4.0695931 3.1527254 4.0753834l-.5281751.8762605s.9641597.5655162 1.848613.6736012c-.3380321.2750377-.6626198.6475449-.9487946.930303l.8133897.7054476c-2.0790894.3734723-2.6668043-1.8499905-4.014131-.778791-2.0579624 1.6396108 2.4766612 5.0944706 6.8230623 4.5810668-.364921.4699768-1.3857394 1.1609487-1.8255653 1.5199453 3.5397337 3.3622155 1.7938748 6.5285269 3.2506779 8.8484942-3.0547729-.2055545-5.3153625-2.4570036-5.8454583-4.8927762m3.9824405-3.782975c.9843264-.7836162 1.7986764-1.1754243 1.7573827-3.071737-1.4769697.7585251-5.6629977.7179932-7.4117375-1.7013737-.4955243-.6890419.0345714-1.0345278.5108894-.4931378 1.1965567 1.3645731 3.4158526.7469445 4.2244407.3532063-.1277223-.4709417-.4878418-1.0808499-.7903421-1.342377.3025003-.2991639 1.1600647-.7450145 1.3338823-1.512225-.4580719-.2489815-2.2337006-.4284798-2.2337006-.4284798.2852146-.2769678.6405324-.6610556.428302-1.6830378-1.8150018.5606909-4.0554247-.2007293-4.5663141-.8752955-.5003259-.6639507.0105635-1.2854394.4321433-.8453791.9026993.9524991 5.3604974 2.0468597 7.018007.3869829-.6146038-.1708129-1.2954695-.7247485-1.4164697-1.0673393 1.5336286-.1544072 2.7570742-1.0644443 2.858868-2.1983717-.8489215 0-2.4526533-.0617629-2.9981141-.474802.7356039-.2731076 1.200398-.5404249 1.4327951-1.3684332-2.8050901-.1708129-3.027884-2.2649598-3.0432491-2.6114108 1.8265256 1.058654 5.0445527.5867471 4.2129169-2.0198384-1.5201841-.0820288-3.0518919-2.5535081 1.1283741-4.823293 3.8019007-2.0690557 8.1223733-4.2983088 7.7401665-7.9664434-.2487224-2.3489186-4.095758-3.9499277-4.5835998-5.1378976-1.6056524.7681755-1.9283194 1.6598767-1.203279 3.1528008 0 0-3.5781464.3570665-3.86048-1.8548158-.1219605-.9920659.536818-1.9204388 1.245533-2.6287816-.4023735 0-3.097027-.7247485-3.9094563 1.4813435-1.5105809-1.0364579-2.8022092-.9978561-3.8201467.0955395 1.6229381.9679397 2.6283915 4.2915534 5.3134418 5.2720388-1.9100733 1.0403181-4.9984574.6050829-6.8000147-2.5911449-1.7055256 2.5814944-2.686971 5.1388627.9699216 7.8680089-6.65692733 3.0447158-6.60795109 8.8620048-12.39771085 11.634578.58771487 1.5836382 1.82556532 1.5836382 3.40336849 1.3356217-2.50355013 3.2686062-.3697226 6.6896894-4.33391704 8.0880391.37260355 1.3327266 1.11685032 2.3981359 2.57749464 2.0082578-.41485756.6504401-.68854831.6378945-1.33580292 1.3529926 2.16647836 1.3713284 4.73533013.3782975 5.3172831-4.0203759.10275407-.7865114 1.17927098-.2943386.80762778.476732-2.46993897 5.1301773 3.7750117 8.9903558 1.565319 12.7549948 1.9484861-.0820287 3.4321781-.2354708 4.2436471-.8945963.3985322.7884414.6366912 1.5710926.5512228 2.3421633 1.076517-.2190651 1.4673666-.8588897 1.5413111-1.5942537.7067943 2.0680906 3.2266699 4.2761127 7.2590469 4.2761127-2.1395894-3.0630516-.1469287-6.1733905-3.1690508-9.6745724"/><path d="m12.6223182 42.2517655c.71695.7601243 1.5843942.838037 3.2286121.7335199-1.8068637-.2232865-2.8219977-.6708097-3.4548206-1.889859-.0916051-.6318533-.1523636-1.3055135-.1776017-2.0238309-.0570195-1.9345163.5692602-4.2376929 1.8844476-6.7613056-.0084127 1.5820087 1.224517 4.0704656 3.9773435 4.4837832-2.4742722-1.0993298-3.9296715-3.5763848-3.1360723-5.9745769.515045-.8361368 1.0964569-1.699828 1.7461053-2.5796719.3262263-.4228191.6440398-.8313859.9543755-1.2104979-.3309001 1.2209497 1.1226297 2.4837061 2.0947654 2.6955908-.5262619-.5235356-1.6591739-2.2243137.956245-5.0681287-.7300365.3515575-1.5367222.8484887-2.1489807 1.3321178 4.7513131-5.2173031 8.6585507-5.3645772 10.4532627-7.9889063-2.5985934 1.8062453-9.4801923 2.7811047-12.5732663 1.9278652 1.7059112 1.1582394 5.8187929 1.0527722 6.8236446.8361368-3.3529333 3.3141419-10.6738627 6.7366015-11.941378 9.7818494 1.7825603-1.9886752 2.9379061-2.3525847 4.4802368-2.8647184-1.2151696 1.8442516-2.309757 3.4661668-3.0650316 5.3484245-1.9470756 4.3004032-4.55127752 4.3555122-4.7242055 7.9024422.88894329-2.7487995 2.6911333-3.4462135 3.9418232-5.2505585-.2206 1.1515883-.3234221 2.4304974-.2841627 3.9051385.043933 1.6038623.3608119 3.0138928.8618356 4.2756991-.1271254 1.7520865.0261729 4.7488765 2.0040951 6.7242495-1.3441645-1.7283326-1.6320662-4.5388921-1.5124188-5.6353714 1.5470044 3.0357464 5.961809 7.2306823 8.094899 10.0488431-2.13309-3.6257929-7.362993-7.8596852-8.4837532-12.7482345"/><path d="m62.2146068 27.681133c1.5346477.5121337 2.6926432.8760432 4.4749655 2.8647184-1.262673-3.0452479-8.5910365-6.4677075-11.9425876-9.7818494 1.0065869.2147351 5.1198541.3221026 6.8246028-.8361368-3.0889225.8532395-9.9705372-.1216199-12.5715875-1.9278652 1.7972762 2.6243291 5.7002537 2.7716032 10.4528016 7.9889063-.6093729-.4836291-1.4168854-.9805603-2.1496283-1.3321178 2.6122657 2.843815 1.4832435 4.5445931.9533134 5.0690788.9748098-.2128348 2.4281455-1.4755912 2.0972896-2.6965409.3121634.379112.6308692.7876788.9551827 1.2104979.6542347.8798439 1.2318305 1.7435351 1.7449375 2.5796719.7925586 2.3981921-.6645156 4.8752471-3.1328497 5.9745769 2.7524589-.4123674 3.9870933-2.9017745 3.973074-4.4837832 1.3159464 2.5236127 1.945881 4.8267893 1.8860652 6.7613056-.0243001.7183174-.0859851 1.3919776-.1785126 2.0238309-.6346077 1.2190493-1.6496061 1.6665725-3.4524901 1.889859 1.6458677.1045171 2.5085229.0266044 3.2300503-.7335199-1.1215452 4.8885493-6.3507499 9.1224416-8.486359 12.7482345 2.1356091-2.8181608 6.5432819-7.0130967 8.096622-10.0488431.1196315 1.0964793-.1710356 3.9070388-1.5122168 5.6353714 1.9767235-1.975373 2.1300013-4.972163 2.0019583-6.7261498.5000222-1.259906.8140549-2.6699365.8607859-4.2737988.0476657-1.4746411-.0635542-2.7535502-.2831901-3.9051385 1.2505229 1.8052951 3.0524723 2.501759 3.9431661 5.2505585-.1710356-3.54693-2.7758245-3.602039-4.7273132-7.9024422-.7523699-1.8822577-1.8440073-3.5041729-3.05808-5.3484245"/><path d="m70.9973076 44.9445912c.0777875.1254555.2833 1.5720539.8345345 2.2668844-2.8800563-.1862532-1.5442249-6.2824254-4.4252415-4.8145961-.8114863.4111081-1.0544521 1.3722902-.6779992 2.1559045 1.8832245 3.9190368-2.4094903 7.3738883-2.1684452 10.8084738-1.0611744-.0077203-2.1617228-.0366716-2.8483651-1.4707244-.3534047.7150963-.9180839 1.7197053-1.2263527 2.6886078l-.861424-1.4707245c-.5349087 2.4357668-2.7974671 4.6891406-5.8455826 4.8927645 1.4491513-2.3199617-.2929034-5.4862655 3.253628-8.8484728-.4465575-.3589958-1.4635564-1.0509311-1.8304058-1.5199417 4.3493747.5134025 8.8821741-2.9414489 6.8241679-4.5810558-1.3463951-1.0711969-1.9389241 1.1522605-4.0122957.7787892l.8124466-.705446c-.2832999-.2827574-.6146168-.6533336-.9507354-.9303007.8854324-.1080848 1.8486523-.6735996 1.8486523-.6735996l-.5281864-.8762584c5.092677-.0057902 5.21464-3.9190368 3.1537528-4.0753736-.9670612-.0714132-2.2260655 1.7274257-5.3634925 1.3539543.3956596-.4863813.5598775-1.2178834.753866-1.7592721-.7548264-.0714131-1.6517829-.0646578-2.3643543-.4140031 1.5327008-.1997638 1.915876-.7141313 3.1902457-1.6849639l-1.4750805-.5442839c2.145397-1.0750571 2.0109496-2.9510993 2.0762526-4.90531-1.1197551.6494735-2.4459831 1.6560126-3.8471175 1.1870021-.3351582-.11291-.5531551-.2682818-.5598775-.6195572 2.0138306-.7951949 3.295883-3.9084213-1.5154147-6.524651-3.0682827-1.6637329-10.5800533-5.3318587-5.4902573-9.2866021.6962456-.5365635 1.4520323-1.0190846 2.0925783-1.621271.799002.6156969-.291943 2.1423939-.5637189 2.7021184 0 0 1.6921171.1717775 2.0925784.1717775 2.6236458-.0115805 5.3711753-1.5681937 3.9806046-4.5569297 1.0410073.2180995 1.1648911 1.2236736 1.4827632 2.0854564.6674355-.4526048 1.8265645-1.4272976 2.7244814-1.2902616-.7288972 2.3382975-3.7827748 4.4411247-6.1576928 4.9188207 2.3979661 1.3124575 6.8481764 2.2890803 9.1875619-.5365636 1.6402588 3.193325-.6463081 4.5279785-2.8896596 6.2003968 8.5412538 3.9132466 7.2803289 8.3080492 12.8839062 11.7657958-.7250559.34259-3.9710012-.3454852-4.2610236-.386982 1.2234717 1.5855645 1.7929527 2.2553039 2.1444367 3.0263727.33996.7218516.4907332 1.5363473.8268518 3.2965845.2679345 1.3906259.750985 2.7754616 2.4296573 3.6951469-.6597528 1.2014777-2.1213885.2624915-2.7302434.1022945m-.3322772-8.7355629c1.575916.2480159 2.8157135.2480159 3.4034409-1.3346535-5.7918037-2.7725665-5.7418661-8.5898415-12.3979747-11.63455 3.658891-2.7291396 2.6716627-5.2865017.9728232-7.8679899-1.799675 3.1962201-4.8977282 3.6314542-6.7991991 2.5911386 2.6783851-.980483 3.6896219-4.3040887 5.3125946-5.2729911-1.0150782-1.094358-2.3115357-1.1310296-3.8240694-.0965043-.8172484-2.2041566-3.5071575-1.4794098-3.9114602-1.4794098.7068094.708341 1.3742449 1.6357467 1.2474802 2.6287752-.2784983 2.211877-3.8576812 1.8548113-3.8576812 1.8548113.7221748-1.4929204.4014216-2.3846195-1.2052253-3.1527932-.4907332 1.1879671-4.3320886 2.7889723-4.5817767 5.1369202-.3850959 3.6690908 3.9402703 5.8983385 7.7384105 7.9673892 4.1793948 2.2697795 2.646694 4.7412529 1.1331999 4.8232815-.8402965 2.6085093 2.377799 3.0784849 4.2091652 2.0198335-.008643.3464502-.241045 2.440592-3.0471552 2.6123695.2372037.8270413.7000871 1.094358 1.4347463 1.367465-.5483535.4130381-2.1492384.4748008-2.9962573.4748008.0998753 1.1339247 1.326228 2.0439596 2.8608495 2.1983663-.121963.341625-.8038036.8965243-1.4174602 1.0673368 1.6575449 1.6598728 6.1135173.5655148 7.0210375-.3869819.4148664-.4400593.920965.1814279.4273508.8434469-.512821.6764947-2.7513709 1.4379131-4.5673717.8772235-.2083935 1.0210147.1411699 1.4079967.4283112 1.6830338 0 0-1.7756666.1775677-2.2356689.4284787.172861.7672087 1.034285 1.2130582 1.3367917 1.5122213-.3025067.2615265-.6616735.8714332-.7913192 1.3423739.8143673.3937372 3.0317898 1.0103993 4.2235703-.3532055.4820901-.5413887 1.0083558-.1959036.515702.4921716-1.7497374 2.420326-5.9377752 2.4598928-7.4157367 1.7023346-.0412946 1.8963081.7749934 2.2861852 1.7574201 3.0717296-3.0269881 3.5011735-1.0266023 6.6115048-3.1662373 9.6745491 4.0295819 0 6.5495111-2.2109119 7.2572808-4.2761024.0797082.7353622.4667247 1.3751852 1.5403836 1.5942498-.0825892-.7729988.1574956-1.5537181.5483535-2.3421576.8153277.6591239 2.3028926.8125656 4.2475788.8945942-2.2049381-3.76463 4.0382249-7.6247992 1.561511-12.7549641-.3658891-.7710688.7096904-1.2613103.813407-.4767309.5790843 4.3986628 3.1508718 5.3916913 5.319317 4.0203662-.6520701-.7150963-.9219253-.7025508-1.3387124-1.3529893 1.4597151.3898771 2.2030173-.6755296 2.5775495-2.008253-3.9613978-1.3983463-1.8275249-4.8194213-4.3349696-8.0889846"/><path d="m30.7300858 52.1550766 1.190951-.9186693c.2137357-.1630369.3523752-.2674977.5940313-.2362571l1.6810028.2255182c.0924263.4071042.3620029.8073746.3620029.8073746l-1.7888334-.3817213c-.2541723-.0302643-.3283058-.0185491-.5661109.1552268l-.846278.6501953c-.1694482.1327726-.1732993.3436467-.0779847.5506158l.1367138.2987383-.591143.4539652-.2272145-.4305347c-.2291402-.4627516-.2445445-.8805948.1328627-1.1744518m2.7313888-3.2050916-.3100131.166942c-.2146985.1259387-.3234919.1815861-.5112328-.0536948l-.1338255-.1727996c-.0673942-.0810304-.0885752-.2840944.0481387-.4393212l1.3315159-1.5727696-1.2265736-1.0211775 1.5625816.583809.5718875-.7234155c.1675226.1454641.1087934.5633073.1087934.5633073.6335051 0 2.4724027.9264794 2.5426852 3.2490238 0 0 .4178437.6238359.9464065.6560528l2.709245.1659658c.4486525 0 1.5712465-.8679033 3.015407-.0478372.3639284-.2216131.7557773-.4002704 1.1553283-.446155 1.2727867-.0956744 2.2066772.8044458 2.904688 1.708471.5093073.6541003 1.2073182 1.6567287 1.2073182 1.6567287-.3003854.3612196-.5949941.4832533-.8443525.391484-.3745189-.1952539-.4967912-.5027786-.6171379-.9264794-.1906292-.6736258-.9213744-1.2496246-.9213744-1.2496246.2493584.4520127.3003854.9655302.4207321 1.4370682-1.0600137-1.0612045-1.2583451-2.3606188-1.9996808-2.539276-.3283058-.0829829-.7105269.0595524-1.0638649.475443.3735562.8786423.353338 1.896891.7365219 2.5773506.2917204.5086362.3523751.5554972.4823496.6648393.3129014.228447.135751.6375038.0885751.9342896l-.4014766 2.5519675h-.6758671l.4448015-2.4972965c.1367138-.7605136-1.9688721-.7605136-3.0471786-2.2112496-.9194488 1.0895164-3.4948683.8171373-4.6107229.6472665-.4486525-.0683389-.8876773-.0390508-1.1351101.410033-.144416.2509012-.387035.1757285-.5343394.1405828l-2.0324151-.4451788c-.357189-.0839591-.5121956-.0126915-.6710532.3202163l-.4062905.8532593c-.0895379.2001351-.0837613.3465755.0779847.5076599l.1915919.2089216c-.1164956.4090568-.4823496.7204866-.4823496.7204866l-.4428758-.5066836c-.2166241-.2548063-.2281774-.6257886-.0577664-.9870082l.6575743-1.393136c.0789475-.1542506.2195124-.3221689.4948657-.3221689l2.5147647-.0390507-.7702189-1.2720787c-.5728503-.953815.37837-2.6534996.2368423-3.4569691-.072208 1.0778012-1.356548.5857615-1.5548794.7322019m10.4653494 5.8771403-1.0860087 2.7130519h-.6729788l1.0840831-2.6271403c.1126446-.3397416-.1001284-.4978972-.3725934-.8688795.4034022.2303995.6912715.3817212 1.178435.5701412-.0413993.0771253-.0924263.1200811-.1309372.2128267m-13.2323608-.3075248 1.220797-1.0494894-.1858153-.3758636c-.1328628-.2694503-.0616176-.2850706.0789474-.3924602l.6450583-.4871583c.1482672-.1239862.306162-.1093421.4871635-.06541l1.9361377.460799h-2.0420428c-.4717591.0322169-.608473.2147792-.7788839.5701412l-.1405649.2899519-.5247117 1.0943978c-.1781131.3758636-.2715021.8786422.1973686 1.4448783l.3706679.4481075-.7519262 1.5425053h.633505l.5198978-1.069991c.0413992-.0390508.8096926-.7497747.9724013-1.4868579-.2214379-.1835386-.3802955-.3114299-.2570605-.5681886l.2358795-.5115651c.0770219-.1698708.1039796-.2391859.3292686-.1942775l2.0304896.4451787c.2532095.0712676.6248401.1835386.8963422-.2303995.2772788-.4305347.3157898-.3846501.9608481-.31924l1.0369072.1112946c1.4172028.1366777 2.8315173-.2225893 3.3831865-.6658155.1925548.4471313.5757387.7868729.7557773 1.1344247.0654686.1288676-.0442875.3104536-.1318999.5369481l-1.1639934 2.818489h1.7946101l1.0157262-2.5724692c.0943518-.2460198.2310656-.4422499.336008-.5408531l-.5824781 3.1133223h1.7416575l.4621313-3.0801292c.1020541-.6843646.0413993-.9059777-.2830554-1.1871433-.7259313-.6209071-.7095642-1.926179-.9435182-2.7179333.1232351-.0722439.2657256-.1083658.4370993-.0878642.3802956.0341694.6652765 1.0172725 1.1129663 1.6498949.8905656 1.2701261 2.1075115 2.6720486 3.5006449.6970561-.1347883-.2245419-.2801671-.4305346-.4486525-.6257885l-.3889606-.4627516c-.2262518-.2557825-1.3045582-1.5063833-1.7551363-1.9574196-1.02054-1.044608-2.5908238-.8844999-3.2166267-.3787924-1.4152772-.7527035-2.9095019.0380745-3.2628398.0087864l-2.4387056-.1493692c-.110719-.0078101-.2801671-.0449084-.3985883-.2382097l.4534664-.1503454c-.4245832-1.7895014-1.4903736-3.2890508-3.3533406-3.5458096 0 0-.1087934-.5652598-.3937744-.6746019l-.5555204.6648392c-.1578948.021478-.3283058.0712677-.4679079.1327726l-2.3780509-.8971913 1.7859451 1.8285521s-.927151 1.3296786-1.1899882 1.6020577c-.1761876.2479724-.1588577.4422499.0375481.6804596l.3456358.460799c.1800387.239186.3745189.2294233.6604627.0820066l.3918489-.2059928c.1704109-.1454641.7422984.1405828.9887685-.0878642-.1578949.5213277-.2358796 1.0211776-.2715022 1.4185191l-1.6039809-.1942776c-.3494868-.0478372-.5083444 0-.7220802.1679183l-1.3671385 1.0680385c-.4457642.3475518-.5844036.9460048-.3100131 1.5298137z"/><path d="m35.8706373 19.9302326c.7670713.5160575 2.1293627 1.0697674 2.1293627 1.0697674v-.8815061l-3-1.1184939s0 .358804.8706373.9302326"/><path d="m38 19v-.8534622l-3-1.1465378s.3560682.4068706 1.1233701.9661836c.6760281.4981213 1.8766299 1.0338164 1.8766299 1.0338164"/><path d="m38 17v-.7964072l-3-1.2035928s.5860806.5169661 1.28663 1.0359281c.6172162.4670659 1.71337.9640719 1.71337.9640719"/><path d="m47 27.978h3c-.1235821-.487-.5901493-.978-1.4668657-.978-.8274627 0-1.3262686.536-1.5331343.978"/><path d="m43 15-3 1.2035928v.7964072s1.0993276-.497006 1.7182152-.9640719c.6986552-.518962 1.2817848-1.0359281 1.2817848-1.0359281"/><path d="m43 19-3 1.1184939v.8815061s1.3650854-.5537099 2.1335863-1.0697674c.8664137-.5714286.8664137-.9302326.8664137-.9302326"/><path d="m43 17-3 1.1465378v.8534622s1.2036108-.533548 1.8796389-1.0338164c.7632899-.559313 1.1203611-.9661836 1.1203611-.9661836"/><path d="m29.4642218 27c-.8738819 0-1.3389982.491-1.4642218.978h3c-.2137746-.443-.7039356-.978-1.5357782-.978"/><path d="m38.5 15.0638433-5.0931628-2.0238246c.4332594-1.0285635 2.4292797-1.9067911 5.0931628-1.9067911 2.6629371 0 4.6570655.8782276 5.0893789 1.9067911zm3.7896007 6.3226679-3.4310738 1.8163992v-7.3379104l4.6627414-1.5927985zm4.0137983 3.0590485c-1.2874804.2245522-2.3933325 1.8087873-3.2995825 3.2350746l-.1012199.1636567h-.9667928l-.003784.1684142c-.100274 1.1018284-1.1380154 2.5975747-3.4348577 2.5975747-1.059499 0-1.8569612-.326362-2.4075222-.7716605-.4767746-.3891604-.7728667-.8696642-.9204397-1.3301866-.053921-.1665112-.0889223-.3349253-.103112-.4957276l-.0085138-.1684142h-.959225l-.1040579-.1636567c-.9109799-1.4262873-2.015886-3.0105224-3.2976905-3.2350746l3.5010765-2.045709 4.3023225 2.3520896 4.2975926-2.3520896zm4.7232842 5.3930597c-.3679867.9610075-.6631328 2.0038433-.6631328 3.0485821v11.2038246h-1.2950483c-.5893463-.57375-1.0859864-2.482444-1.0859864-2.482444-.3225796.6879291.047299 2.0790112.3916362 2.482444h-1.6677649c-.4143398-.5623321-.7719207-2.551903-.7719207-2.551903-.4985321.571847-.1825743 2.1208769.1267615 2.551903h-1.10869c-.0690566-.7954477.1570329-1.6632089.1570329-1.6632089-.5798865-.1075187-1.1966662-.4138993-1.1957202-1.0628172.2942001.2759328.4133938.2711754.8192197.2626119l.4710986-.372985c-1.5627609.0513806-1.6356015-1.6746269-.3963661-2.4814926-1.2392354.0399627-2.163459-.70125-1.713172-2.0238246-.8807085-.4576679-1.1909903-1.9572201-.5401552-2.617556-.4710987-.5138059-.5496151-1.5233395-.2478471-2.2131716-.6234016 0-1.3262657-.2502425-1.7179019-.6784142-.0302714.0142724-.0662187.0237873-.098382.0352052.7804345-.320653 1.4416753-.8182835 1.8881785-1.4367537zm-.6602949 22.2573134c0 2.3368657-1.0736887 4.1133023-2.8597012 5.0961941l.6413753-1.3083023h-.6196177l-.8211117 1.6765299c-.8494911.3244589-1.8162839.5014365-2.8814588.5014365-3.2598512 0-4.1216401.133209-5.3239822 1.3416045-1.20991-1.2083955-2.0698069-1.3416045-5.3239823-1.3416045-1.0594989 0-2.0234538-.1741231-2.869161-.4947761h.0208116l.8220577-1.6831903h-.6177258l-.7208377 1.4729105c-.1731145-.0818284-.3386612-.1693657-.499478-.2664179l.5921842-1.2064926h-.6158338l-.4398812.8991605c-1.3962683-1.0333209-2.215488-2.6470523-2.215488-4.6870523v-7.3474253h23.7318306zm-16.1545211-13.4188992.9989561.125597c.0756785.5499627-.0671646 1.4852798-.4237996 2.0066978l-.9696307-.2806903c.2582529-.6175187.3225796-1.1941232.3944742-1.8516045zm-1.4416754-.7364552s.9194937-.0437687 1.1786926.054235c.1910882.0799254.0605428.4034329-.1863583.3672762-.2582529-.0313993-.9923343-.4215112-.9923343-.4215112zm-.0605428-3.6661008-.8248956 3.0247948.2819024-4.8802052 1.2780206-1.0999254.6508351 1.4358022-1.6441154 4.7393844.4342054-3.1903545c.0406772-.2216978-.1390592-.2473881-.1759525-.0294963zm-.6338074 5.043862c-.4313674.1731716-.8731407-.0627986-.7369194-.3434889.1996021.1826866.758677.0932463.758677.0932463zm-.8116519.4034328c.200548.193153.804084.119888.804084.119888l.0217576.1217911c-.2639287.3530037-.9932803.193153-.8258416-.2416791zm-.9469272-1.9496082c-.2308194-.1550933-.1267615-.4909702.1295995-.4909702.2790644.0066605.6546189.326362 1.0235516.4852612 0 0-.9677388.1322575-1.1531511.005709zm.9176018 2.6841604s.2762265.1160821.6281315.1446269c-.0406772.193153-.1901422.3796455-.4256915.3263619-.1967641-.0437686-.2856863-.2902052-.20244-.4709888zm.6498891-1.8287686c-.4644768.1512873-.6688087-.1864926-.6489431-.4738433.9109799-.3330224 1.3168058-.1179851 1.5826265.0523321.2440632.1560448.4483951.5965858.7766506.8725186-.0529749.3758396-.1683846.9181903-.301768 1.2816605-.9308455-.2397761-.9790905-1.0656717-.6328614-1.5671082-.1939262-.2293097-.4001501-.2873508-.7757046-.1655597zm4.0355558.2683209.9961183.1189365c.098382.5509142-.0879763 1.72125-.4635308 2.2797762l-1.0159839-.2959142c.406772-.5356903.555291-1.4881344.4833964-2.1027985zm1.714118.2112313.8220577.1027612c.1314914.6869776.0454071 1.8753918-.3906903 2.5509515l-.955441-.2787873c.4181237-.57375.6158338-1.7536008.5240736-2.3749254zm1.4728927.1836381h.0179737c.2137917.0323507.4389353-.0047575.6442132-.0894403.4436652.6403544.7917863 2.0932836.2582529 3.0000559-.3017681.005709-.5988062-.0475746-.8750327-.1265485l-.2213596-.0666044c.4502871-.7022015.3850144-1.9419963.1759525-2.7174627zm1.2562631-.4881157.5846164-.5747015c.5931302.5214179 1.3726187 1.6869963 1.1295015 2.7935821l-.6366453.5870709c-.1305454.1265485-.2667667.2216978-.40488.3063806.3963662-.9876493-.1087878-2.5100373-.6725926-3.1123321zm3.4197221.3282649c-.1258155.1712687-.2298735.3710821-.2960922.5880224l-.7085399.6536754c.1418972-1.0409329-.554345-2.2750187-1.1900443-2.7764552l.753001-.7431157.150411.1522388c-.251631.6641418.2402792 1.9695895 1.2912644 2.1256343zm-1.8796647-5.0410074c-.3727166.7145709-.3348774 1.5385634.1040579 2.2864365l-.2923082.2883023c-1.2704527-.1598508-1.7718228-2.0647388-1.7718228-2.0647388-.0255415.1712686-.0406772.3387313-.0378392.5090485-.7407033-.2759329-1.20991-.9391232-1.1720707-1.8458956.2800104.1569963.5959681.2683209.9298995.326362l.0870303-.5566231c-.8873304-.1560448-1.4057281-.7136195-1.6024922-1.3730038-.0425692-.003806-.0804084-.0142724-.1210856-.0171268.1589248.0133208.3131198.0256903.4748826.0256903.5269115 0 1.0254436-.0818284 1.4946503-.2207463.3679867.5280783 1.0235516.9067724 1.6791166.9800373-.1021659.4319776-.0520289.9819403.2279815 1.6622575zm-7.2840553-4.2512687c.6129958.8430224 1.6072221 1.468153 2.7849687 1.7126866.099328.4452985.3386612.9324627.8059759 1.3254291-.1939261 1.3102052.3660948 2.5338246 1.7680389 2.859235.1456811.6669963.5590749 1.1731903 1.2477492 1.412015l-.9734146 1.1322761c-.3708247.4338806-.857059.571847-1.260993.5223694l-4.3524595-.4985821c.1882502-.4862127-.3131198-1.0485448-1.6904684-.8068657l1.71128-4.8136007-1.0443633-2.233153-1.9789927 1.6984142-.1447351 5.0486194-.8409773-.4167537c-1.105852-.4795523-1.4274857 1.53-.3774465 1.5385634l.4171777.0047575c-.0264875.2064738.0350013.434832.1967641.504291-.1967641.0837313-.2573069.4576679-.0075679.5908769-.250685.1189365-.2847403.500485-.0823003.6650932-.2204136.3720336-.253523 1.1750933.5098839 1.3787127.6234016.1646082 1.0140918-.511903 1.1436912-.9048694l6.7722795 2.1104105c.960171.2768843 1.6412774.1208395 2.4368476-.581362l1.7680389-1.5547388c-.2223056 1.0161941.1418972 1.9334329.9119259 2.2360075 0 0-.1116258.9134328-.0766245 1.3225746h-17.6293058v-11.2038246c0-1.0447388-.2998761-2.0875746-.656511-3.0485821zm-1.1436913-15.5664179 4.6589575 1.5927985v7.3379104l-3.4320199-1.8163992zm11.3205571-.8734702c0-1.7935634-2.9949765-3.3987313-6.2992888-3.3987313-3.3062044 0-6.3011809 1.6051679-6.3011809 3.3987313l.0681107.4395896 1.3158598 7.6176492-6.2463139 3.6622948c-.6640788.3910635-1.4955963 1.473862-1.6015462 2.5623694h1.1399074c.1882502-1.0875559 1.0424713-2.2940485 2.6355036-2.2188806 1.4416754.0761194 2.2958964.958153 3.1444416 2.2188806l.2185216.3320709.3140658.4957276h-9.1845316c.6744846 1.3634888 1.3168058 2.8097575 1.3168058 4.3787687v19.2087313c0 4.9430038 3.7735191 7.2960448 7.8611039 7.2960448 3.1557933 0 3.5814849-.1446269 5.3239823 1.6080224 1.7368215-1.7526493 2.160621-1.6080224 5.3239822-1.6080224 4.0828549 0 7.8601579-2.353041 7.8601579-7.2960448v-19.2087313c0-1.5690112.6394833-3.0152799 1.3139679-4.3787687h-9.1911534l.3159577-.4957276.2194676-.3320709c.8447612-1.2607276 1.7018202-2.1427612 3.1444416-2.2188806 1.5883024-.0751679 2.4463074 1.1313247 2.6345576 2.2188806h1.1370695c-.10122-1.0885074-.9374674-2.1713059-1.6006003-2.5623694l-6.2453679-3.6622948 1.3177518-7.6176492z"/><path d="m49.9914613 38 .0085387-.6392199c-1.5472111-.0465873-1.900713-2.3607801-1.900713-2.3607801-.4534046 1.7042254.7274966 2.9739978 1.8921743 3"/><path d="m48 40.9069252-.1386125-.6212425c-1.1831844.4397684-1.7950706-2.2856827-1.7950706-2.2856827-.3783127 1.9795148.9419525 3.3823205 1.9336831 2.9069252"/><path d="m49.5258965 38.6797311c-1.7681579.2644105-2.4941946-1.6797311-2.4941946-1.6797311-.1953978 1.0585475.5296811 2.1324888 1.7001518 2.2456782-.2643616 1.382722 1.0928864 2.0899296 2.2681463 1.5982347l-.1695363-.4817342c-1.0210489.3241745-1.978881-.6311442-1.3045672-1.6824476"/><path d="m47.9855157 33 .0144843-.6400722c-2.0755133-.5436823-1.9025539-2.3599278-1.9025539-2.3599278-.4481609 1.7101083.7301786 2.9729242 1.8880696 3"/><path d="m33.5718033 56-.5718033 2h.4295082l.5704918-2z"/><path d="m34.57021 56-.57021 2h.433727l.566273-2z"/><path d="m39.5695538 56-.5695538 2h.4291339l.5708661-2z"/><path d="m40.5731148 56-.5731148 2h.4321311l.5678689-2z"/><path d="m38.5707733 56-.5707733 2h.4292267l.5707733-2z"/><path d="m46 58h.4302554l.5697446-2h-.4296005z"/><path d="m35.5690897 56-.5690897 2h.4296005l.5703995-2z"/><path d="m36.5686275 56-.5686275 2h.4320261l.5679739-2z"/><path d="m34.224 47c-.118 0-.224.117-.224.267 0 .146.106.266.224.266.125 0 .231-.12.231-.266 0-.15-.106-.267-.231-.267"/><path d="m34.5052397 8.24836328 1.0197799-2.14514556 1.890228.99651762 2.0867173-2.04471375 2.0867173 2.04471375 1.888263-.99651762 1.0079906 2.14514556 1.2565497-.19111297c-.3222426.5996657-.564907 1.12035103-.7879225 1.85555092-1.3734608-.795654-3.4130207-1.40799555-5.4515981-1.40799555-2.0454546 0-4.0801022.61234155-5.4545455 1.40799555-.2289101-.73519989-.4676447-1.25588522-.7928346-1.85555092zm4.9967252.93996379c2.6555541 0 4.7815693.87268423 5.9565758 1.81167293 0 0 .351716-2.09249199 1.5414593-3.92951665l-2.1407519.23791615-1.1180246-2.36356039-2.1525413 1.11060037-2.0867173-2.05543948-2.0867173 2.05543948-2.1564711-1.11060037-1.1199895 2.36356039-2.138787-.23791615c1.1917081 1.83702466 1.5394944 3.92951665 1.5394944 3.92951665 1.1720592-.9389887 3.3039691-1.81167293 5.9624705-1.81167293z"/><path d="m41.4556417 4.99770412c.2750106.03082511.5195611-.25252877.5430589-.62243007.0269789-.37345804-.3750936-1.37527405-.3750936-1.37527405s-.6022384.88207232-.6213847 1.25908711c-.0261086.36990129.1810197.70067842.4534194.73861701"/><path d="m44.2624066 4.95588571c.2406964.09850483.5345001.02592232.6646989-.15683006.1310553-.1795121.0453982-.79905565.0453982-.79905565s-.7871885.26894411-.9173872.4516965c-.1233462.18016016-.0334063.40503632.2072901.50418921"/><path d="m36.5392288 4.99770412c.280321-.03793859.4831619-.36871572.4587862-.73861701-.0252463-.37701479-.6215812-1.25908711-.6215812-1.25908711s-.4013291 1.00181601-.3752123 1.37527405c.0217641.3699013.2672626.65325518.5380073.62243007"/><path d="m33.7388642 4.95588571c.2397984-.09915289.3314357-.32402905.2029722-.50418921-.1267506-.18275239-.9155161-.4516965-.9155161-.4516965s-.0839295.61954355.0479597.79905565c.1258941.18275238.4239293.25533489.6645842.15683006"/><path d="m71.0165927 25.408892c.2187427.5047613.6552933 2.2574315-.3860716 3.5950972-1.1862584-2.4485266-2.8184155-4.545747-4.1392848-5.4500708-.2888526-.1939905.1598504-.5346802.9731245-.6447047 2.4594532-.4815982 5.3405001.5925879 6.714653.9699524-.6394017.4931798-1.1582145.715159-1.8107034.7981599.9974293.8637884 1.724702 1.5943894 2.2388408 2.4089563-.966581.2461074-1.5096985-.3841204-3.5905585-1.6773903m3.102594-.4159696c.7104464-.2605842 1.2601075-.9603011 1.5340033-1.6079012-1.8088338-.2683052-6.6118252-2.3510487-10.5613461-.655321 1.4788502-1.4496204 2.8071979-1.636855 2.9333956-3.7215288.6132274.4555398 1.6499182.7122636 2.2332321-.3744692-.4075719-1.241153-1.4349147-.236456-1.5798084-.5771458-.2009815-.4758075 1.2974995.1457342 1.6172003-1.4669926-1.1647581-.4130743-1.5134377.5694247-1.7209628.3416548-.1925684-.2171535.7394251-.6311929.0532835-1.9312186-1.2124329.7325312-.5814443 1.5586797-.8375789 1.6513319-.3103529.1264316-.0663707-.8811608-1.405936-.8357998-.1318065 1.4882255 1.2591727 1.5335864 1.031082 1.7710076-.2757653.2876078-.6394017-.8551023-1.6517878-.2760263.0177612 1.2015829.9591026 1.8607644 1.9322272 1.5770172-.1589156 2.2825247-2.1846226 1.8569038-3.6961907 4.4270364 3.1979434 1.6928323 4.6450105 4.6441899 6.61276 6.685433.6496845-.4758075 1.7602243-2.5923305 1.7602243-2.5923305 2.1294695 1.7024836 3.6270157.0067559 3.6270157.0067559-.7328815-.7749968-.7590559-1.3646892-1.8808133-2.421503"/><path d="m38.7878788 65.0605819-1.6049784-.0605819-.1829004.6531833.2012987.0110149c.0670996 0 .0670996-.1277728.1255411-.1971666.0313853-.0253343.3225108-.0737998.5519481-.0495671l.6720779.0517701c-.3950216.8382335-1.4307359 1.6269-1.4177489 2.1831523.0151515.2963006.310606.3546796.487013.3469692.323593-.0121164.4242424-.2434292.508658-.6003118.1958874-.8250157.5876623-1.4528648.8712121-2.3990443l-.1991342.0066089z"/><path d="m39.4413146 66.0261762.0229525-.4849664h1.3437663l-.0709442-.5412098c-.3672405.0127343-.9066249.1347718-1.4011476.1379554l-.0938967 1.0569509c.6228482-.0275911 1.0286906.2483197 1.0286906.911567 0 .2472586-.1596244.7088787-.4402712.7438981-.0646844.0095508-.1502348-.0127343-.1909234-.0456314-.1345852-.102936.0417319-.2164839.0417319-.3862752 0-.2207287-.2211789-.298196-.3682838-.2706049-.2305686.0148568-.312989.1676689-.312989.3544394 0 .3894587.5685968.4977007.8116849.4977007.551904 0 1.1883151-.3119915 1.1883151-.9476477 0-.8362221-.9201878-1.0081358-1.5586854-1.0261761"/><path d="m42.1134021 66.6057245c-.4506628 0-.515464-.8011815-.515464-1.1900066 0-.1098123.0864016-.2644459.1875307-.2644459.4104075 0 .5233186 1.0902791.5567011 1.3973053-.0667649.0291339-.1462936.0571472-.2287678.0571472m-.287678-1.6057245c-.4536082 0-.8257241.3854635-.8257241.9121143 0 .8314358.7825233 1.104846 1.3627884.7899761.0706922.6454273-.0441826 1.1082076-.2582229 1.1238951-.1826215 0-.1561119-.1568747-.1826215-.2902182-.0481099-.2509995-.2218949-.3182315-.4005891-.2509995-.1894943.0627499-.2179676.2532406-.185567.3977894.0844379.3260752.4378989.3327984.6077565.3092672.7442317-.0963658 1.0564556-.7272262 1.0564556-1.4275596 0-.8112663-.407462-1.5642648-1.1742759-1.5642648"/><path d="m36.7988896 65c-.0851327.093819-.4774831.5309051-1.3201728 1.093819l.070327.1092715c.0925355-.0441501.241826-.1059603.4959901-.2428256l-.4959901 1.5529801c-.0283775.0838852-.1431215.0916115-.1986428.0838852l-.2948797-.0375276-.0555213.1821193 1.6138186.2582781.0493523-.183223-.2788402-.0540838c-.0826651-.0209713-.1332511-.0739515-.1196793-.1578367l.7353486-2.5772627z"/><path d="m45.4005695 66.1760502-1.1010916-3.6756171c2.3464642-.4979428 3.9791173-1.0095279 5.225439-1.503573v2.2928757l1.9345041.8000217c-1.6345515.7649415-3.6620788 1.5240364-6.0588515 2.0862927m-6.4005695 2.1506064c-2.1879449 0-4.3246322-.3361845-6.1499763-.7961239l1.1618415-3.85589c.7698149.1841706 2.6967252.4268081 4.9881348.4268081 2.2923588 0 4.2116754-.2426375 4.9852871-.4268081l1.1656384 3.85589c-1.8338871.4599394-3.9696251.7961239-6.1509255.7961239m-12.4660655-4.2368991 1.9364025-.8000217v-2.2928757c1.2463218.4940451 2.8789748 1.0056302 5.225439 1.503573l-1.1001424 3.6756171c-2.3910774-.5622563-4.4243-1.3213512-6.0616991-2.0862927m23.5899383-1.2765267v-2.8132308c-2.1177029.9968601-4.8134789 1.8046773-8.2790698 2.1242962l-.15757 1.0056302c.2942573.0428757.6682487.0799047 1.1656384.1130359-1.2842905.1802729-2.9435216.2679732-3.8528714.2679732-.9112482 0-2.5685809-.0877003-3.8547698-.2679732.4964404-.0331312.8675842-.0701602 1.1618415-.1130359l-.1566208-1.0056302c-3.4665401-.3196189-6.1651638-1.1274361-8.2771714-2.1242962v2.8132308l-2.8732795 1.2102642c2.1271951 1.1362062 4.5761747 2.062906 7.4067394 2.811282l-.3350735 1.1781074c1.6212624.4872239 4.2116753.9871156 6.9283341.9871156 2.7157095 0 5.304224-.4998917 6.9254865-.9871156l-.3341244-1.1781074c2.8267679-.748376 5.2814428-1.6750758 7.4086379-2.811282z"/><path d="m3.38921782 27.08706c.51698349-.8146194 1.24057339-1.5452673 2.2446245-2.4052506-.65721409-.086867-1.17232783-.3088604-1.81645373-.8020719 1.3742599-.3773889 4.26394516-1.4516441 6.72358991-.9700148.8077283.1100315 1.2639452.4507432.9675911.6428157-1.3219071.9063124-2.95512616 3.0036678-4.14241192 5.4513867-1.03864132-1.3367866-.5992521-3.0895695-.38423185-3.5943633-2.07728264 1.2943183-2.61857276 1.9236214-3.59270801 1.6774982m2.23714553.3214079s1.11249611 2.1166592 1.75849175 2.5915321c1.97164225-2.0404092 3.4197569-4.9919568 6.6151449-6.684898-1.5126208-2.5702979-3.542225-2.1388585-3.6927392-4.4273213.9713307.2837655 1.9108757-.378354 1.930508-1.5771186-1.0162044-.5762177-1.3789343.5694614-1.6528514.276044-.2271736-.2412972 1.163914-.2828003 1.0320972-1.7691911-1.3415394-.0434335-1.0956684.9603629-1.4107198.8339231-.25148022-.0945885.3786226-.9198249-.838579-1.6514381-.68339047 1.3059005.25148021 1.7132102.05796198 1.9313429-.20660642.2277846-.55811779-.7547777-1.72203178-.3416769.31598628 1.6128306 1.82112807.991249 1.61639139 1.4670871-.14303521.3407117-1.17045808-.6640499-1.57432221.5771829.57868494 1.0868027 1.61732627.8300625 2.22592708.3764237.13088194 2.0915642 1.45559364 2.2662634 2.93829854 3.7198378-3.94889374-1.6958368-8.75412902.3851104-10.568713.6582588.27952633.6447462.82736055 1.3445081 1.53879713 1.599318-1.12090994 1.0665337-1.14708632 1.6533685-1.88002493 2.4274499 0 0 1.49392334 1.6958369 3.62636335-.0067563"/><path d="m37 26v1.281935c.4731299-.5311162 1.3869835-.4263039 1.3869835-.4263039v1.8432855s-.0313259.9110607-.3769916 1.3010834h1.9800162c-.3445855-.3900227-.3769916-1.3010834-.3769916-1.3010834v-1.8432855s.9127734-.1048123 1.3869835.4263039v-1.281935z"/></g></g></svg>