<svg height="66" viewBox="0 0 202 66" width="202" xmlns="http://www.w3.org/2000/svg"><g fill="none" fill-rule="evenodd"><path d="m130.86.625h1.9c4.6.2 9.2.9 13.5 2.6 0 .1 0 .2.1.3-.7 4.4-1.4 8.9-2.2 13.3-1.6-.7-3.1-1.4-4.8-1.9-3.4-1-6.9-1.4-10.4-1.1-2.1.2-4.2.7-5.8 2-1.1.9-2 2.3-1.8 3.8s1.3 2.6 2.4 3.4c2 1.5 4.2 2.6 6.4 3.8 2.6 1.3 5.2 2.7 7.4 4.5 2.1 1.7 4 3.8 5.1 6.3 1 2.1 1.4 4.3 1.3 6.6 0 3.7-1.1 7.4-3.1 10.5-2.4 3.7-6.1 6.4-10.1 8-4.2 1.8-8.8 2.5-13.4 2.7h-2.9c-3-.2-6.1-.5-9.1-1-2.6-.5-5.2-1.2-7.6-2.3.8-4.7 1.5-9.3 2.3-14 2.3 1 4.6 2.1 7 2.9 3 1 6.2 1.3 9.3 1.4 2 .1 4-.1 5.9-.7 1.4-.5 2.9-1.3 3.8-2.5 1.1-1.4 1.3-3.4.5-4.9-.6-1.1-1.5-1.9-2.4-2.6-2.1-1.5-4.5-2.6-6.9-3.8-2.8-1.4-5.4-3.1-7.7-5.2-1.8-1.7-3.3-3.6-4.2-5.9-1.3-3.2-1.2-6.7-.3-10 1.2-4.6 4.4-8.6 8.4-11.1 5.2-3.6 11.3-4.9 17.4-5.1zm-73 1.2h17.2c-5.1 12.5-10.2 25-15.3 37.6-3.4 8.3-6.8 16.7-10.2 25h-17.1c-4.8-17.9-9.5-35.7-14.2-53.5-.1-.3-.1-.6-.2-1 6.9 4 12.9 9.5 17.3 16.1 2 3 3.6 6.2 4.9 9.5.6 3 1.2 5.9 1.7 8.9.4-1 .8-2.1 1.2-3.1 4.9-13.1 9.8-26.3 14.7-39.5zm23.7-.1h16.2c-3.4 20.9-6.8 41.8-10.1 62.7h-16.2c3.3-20.9 6.7-41.8 10.1-62.7zm91.3.3c1.5-.3 3.1-.2 4.7-.2h10.4c2.8 13.7 5.7 27.3 8.6 41 1.5 7.1 3 14.3 4.5 21.4v.1h-15c-.7-3.1-1.3-6.3-2-9.4h-20.7c-1.2 3.1-2.3 6.3-3.4 9.4h-17c3.6-8.8 7.3-17.5 11-26.3 4.3-10.4 8.7-20.8 13-31.2.5-1.3 1.3-2.5 2.4-3.4.9-.7 2.2-1.2 3.5-1.4zm3.3 17.8c-2.7 7.5-5.5 14.9-8.2 22.4h13.4c-.6-3.3-1.4-6.6-2-9.9-1-4.5-1.8-9-2.8-13.4-.2.2-.3.5-.4.9z" fill="#0e4595"/><path d="m1.26 1.725h25.7c1.8 0 3.7.3 5.2 1.4 1.4 1 2.2 2.6 2.5 4.3 1.8 9.4 3.7 18.8 5.5 28.1-1.3-3.3-2.9-6.5-4.9-9.5-4.3-6.6-10.3-12.1-17.2-16-5.3-3.2-11.1-5.4-17.1-7v-.2c.1-.4.2-.7.3-1.1z" fill="#f2ad12"/></g></svg>